<?xml version="1.0" encoding="utf-8"?>
<!-- Generator: Adobe Illustrator 16.0.0, SVG Export Plug-In . SVG Version: 6.00 Build 0)  -->
<!DOCTYPE svg PUBLIC "-//W3C//DTD SVG 1.1//EN" "http://www.w3.org/Graphics/SVG/1.1/DTD/svg11.dtd">
<svg version="1.1" id="Layer_1" xmlns="http://www.w3.org/2000/svg" xmlns:xlink="http://www.w3.org/1999/xlink" x="0px" y="0px"
	 width="100px" height="100px" viewBox="0 0 100 100" style="enable-background:new 0 0 100 100;" xml:space="preserve">
<style type="text/css">
<![CDATA[
	.st0{fill:#FFFFFF;}
]]>
</style>
<path d="M25.4,42.6c-1.9,0-5-0.4-7.5-2.5c-2.8-2.3-4.2-6.1-4.2-11.1c0-14.3-3.4-15.1-3.4-15.1l0-2c1.3,0,5.4,1.2,5.4,17.1
	c0,4.5,1.2,7.7,3.5,9.6c3.3,2.7,7.8,1.9,7.8,1.9l0.1,0h0.1l40.3,0.1l0,2l-40.2-0.1C27.1,42.5,26.4,42.6,25.4,42.6z"/>
<polygon class="st0" points="36.5,40.3 58.5,17.2 58.5,62.8 36.5,85.9 "/>
<path d="M58.5,18.5v44.1l-21,22V40.5L58.5,18.5 M59.5,15.9l-23,24.1v47.1l23-24.1V15.9L59.5,15.9z"/>
<polygon class="st0" points="39.5,40.3 61.5,17.2 61.5,62.8 39.5,85.9 "/>
<path d="M61.5,18.5v44.1l-21,22V40.5L61.5,18.5 M62.5,15.9l-23,24.1v47.1l23-24.1V15.9L62.5,15.9z"/>
<polygon class="st0" points="42.5,40.3 64.5,17.2 64.5,62.8 42.5,85.9 "/>
<path d="M64.5,18.5v44.1l-21,22V40.5L64.5,18.5 M65.5,15.9l-23,24.1v47.1l23-24.1V15.9L65.5,15.9z"/>
<polygon class="st0" points="45.5,40.3 67.5,17.2 67.5,62.8 45.5,85.9 "/>
<path d="M67.5,18.5v44.1l-21,22V40.5L67.5,18.5 M68.5,15.9l-23,24.1v47.1l23-24.1V15.9L68.5,15.9z"/>
<polygon class="st0" points="48.5,40.3 70.5,17.2 70.5,62.8 48.5,85.9 "/>
<path d="M70.5,18.5v44.1l-21,22V40.5L70.5,18.5 M71.5,15.9l-23,24.1v47.1l23-24.1V15.9L71.5,15.9z"/>
<ellipse cx="66.9" cy="40.8" rx="1.8" ry="5.6"/>
<path d="M75.6,43.6c-0.8,0-1.3-0.1-1.5-0.1h-8.6v-2l8.8,0c0.1,0,5.8,0.7,9.9-2.9c2.9-2.6,4.4-7.2,4.4-12.2h2c0,6-1.7,10.7-5.1,13.7
	C82,43.2,77.8,43.6,75.6,43.6z"/>
</svg>
