<?xml version="1.0" encoding="utf-8"?>
<!-- Generator: Adobe Illustrator 16.0.0, SVG Export Plug-In . SVG Version: 6.00 Build 0)  -->
<!DOCTYPE svg PUBLIC "-//W3C//DTD SVG 1.1//EN" "http://www.w3.org/Graphics/SVG/1.1/DTD/svg11.dtd">
<svg version="1.1" id="Layer_1" xmlns="http://www.w3.org/2000/svg" xmlns:xlink="http://www.w3.org/1999/xlink" x="0px" y="0px"
	 width="100px" height="100px" viewBox="0 0 100 100" style="enable-background:new 0 0 100 100;" xml:space="preserve">
<g>
	<path d="M28.6,88.5c-4.2,0-7.8-2.3-10-6.5l-0.1-0.1l-0.3-0.7c-2.8-9.6,4.9-13.5,7.4-14.5l0.2-0.1L50.3,60l23.9-6.8
		c2.8-1.1,4.6-2.8,5.4-4.9c1.3-3.4-0.5-7-0.5-7l-0.2-0.6c0,0-1.3-3.8-4.5-5.4c-2-0.9-4.5-0.9-7.3,0.3l-22,11.8L22.8,59.8
		c-9.1,3.7-13.6-2.3-15.2-5l-0.1-0.2L7,53.4c-0.8-3-1.8-10.5,7.4-14.2l0.2-0.1l24.5-6.6l24.1-6.8c2.8-1.2,4.6-2.8,5.5-4.9
		c1.3-3.4-0.3-7-0.4-7.1l2.7-1.3c0.1,0.2,2.3,4.8,0.5,9.5c-1.1,2.9-3.6,5.2-7.2,6.7l-0.2,0.1L40,35.3l-24.5,6.6
		C9.2,44.5,9,49.1,9.9,52.5l0.4,0.9c1.7,3.1,5.1,6.1,11.3,3.6l22.1-12.2l22.2-11.9c3.7-1.5,6.9-1.5,9.8-0.2c4.3,2,5.9,6.5,6.1,7.1
		l0.1,0.3c0.3,0.6,2.2,5,0.6,9.4c-1.1,2.9-3.5,5.2-7.2,6.6l-0.2,0.1l-24,6.8l-24.5,6.6c-6.7,2.8-6.4,7.9-5.5,10.8l0.2,0.4
		c1.4,2.7,4.7,6.7,11.5,4L55,72.4l22.3-11.9c3.6-1.5,6.9-1.5,9.8-0.2c4.6,2.1,6.2,7,6.3,7.2l-2.8,1l1.4-0.5l-1.4,0.5
		c0,0-1.4-3.9-4.7-5.4c-2.1-0.9-4.5-0.9-7.3,0.3L56.4,75.1L34,87.4C32.1,88.2,30.3,88.5,28.6,88.5z"/>
</g>
</svg>
