<?xml version="1.0" encoding="utf-8"?>
<!-- Generator: Adobe Illustrator 16.0.0, SVG Export Plug-In . SVG Version: 6.00 Build 0)  -->
<!DOCTYPE svg PUBLIC "-//W3C//DTD SVG 1.1//EN" "http://www.w3.org/Graphics/SVG/1.1/DTD/svg11.dtd">
<svg version="1.1" id="Layer_1" xmlns="http://www.w3.org/2000/svg" xmlns:xlink="http://www.w3.org/1999/xlink" x="0px" y="0px"
	 width="100px" height="100px" viewBox="0 0 100 100" style="enable-background:new 0 0 100 100;" xml:space="preserve">
<path d="M87.5,12.5v41.4c0,0.2-1.8,0.3-3.8,0.3c-11.2,0-30.9,18.8-32.8,27c-1.4,6-6,6.6-6.2,6.7l-0.2,0l-0.2,0.3l0,0.3H11.5v-76
	H87.5 M89.5,10.5h-80v80h35.1l0.4-0.4c0,0,6.2-0.8,8-8.3s20.5-25.5,30.8-25.5c3.3,0,5.8-0.4,5.8-0.9V10.5L89.5,10.5z"/>
</svg>
