<?xml version="1.0" encoding="utf-8"?>
<!-- Generator: Adobe Illustrator 16.0.0, SVG Export Plug-In . SVG Version: 6.00 Build 0)  -->
<!DOCTYPE svg PUBLIC "-//W3C//DTD SVG 1.1//EN" "http://www.w3.org/Graphics/SVG/1.1/DTD/svg11.dtd">
<svg version="1.1" id="Layer_1" xmlns="http://www.w3.org/2000/svg" xmlns:xlink="http://www.w3.org/1999/xlink" x="0px" y="0px"
	 width="100px" height="100px" viewBox="0 0 100 100" style="enable-background:new 0 0 100 100;" xml:space="preserve">
<circle cx="25.2" cy="54.5" r="11"/>
<rect x="38.5" y="18.5" width="22" height="22"/>
<polygon points="64.8,66.5 75.8,47.4 86.8,66.5 "/>
<polygon points="25.3,34 19.2,27.9 20.8,26.3 25.3,30.8 29.7,26.3 31.4,28 "/>
<rect x="24.5" y="18.5" width="2" height="14"/>
<polygon points="74.3,33 69,27.7 70.4,26.3 74.3,30.2 78.1,26.3 79.6,27.7 "/>
<rect x="73.5" y="18.5" width="2" height="13"/>
<polygon points="50.3,66.9 45,61.6 46.4,60.2 50.3,64.1 54.1,60.2 55.6,61.7 "/>
<rect x="49.5" y="52.5" width="2" height="13"/>
<polygon points="90.5,83.5 8.5,83.5 8.5,73.5 10.5,73.5 10.5,81.5 88.5,81.5 88.5,73.5 90.5,73.5 "/>
</svg>
