<?xml version="1.0" encoding="utf-8"?>
<!-- Generator: Adobe Illustrator 16.0.0, SVG Export Plug-In . SVG Version: 6.00 Build 0)  -->
<!DOCTYPE svg PUBLIC "-//W3C//DTD SVG 1.1//EN" "http://www.w3.org/Graphics/SVG/1.1/DTD/svg11.dtd">
<svg version="1.1" id="Layer_1" xmlns="http://www.w3.org/2000/svg" xmlns:xlink="http://www.w3.org/1999/xlink" x="0px" y="0px"
	 width="100px" height="100px" viewBox="0 0 100 100" style="enable-background:new 0 0 100 100;" xml:space="preserve">
<style type="text/css">
<![CDATA[
	.st0{fill:#FFFFFF;}
	.st1{stroke:#000000;stroke-miterlimit:10;}
]]>
</style>
<circle cx="50" cy="70" r="20"/>
<polygon class="st0" points="70.5,87.7 52.5,82.4 46.4,82.6 30.3,87.3 10.5,88.9 10.5,11.5 88.5,11.5 88.5,88.9 "/>
<path d="M87.5,12.5v75.4l-16.8-1.1l-17.7-5.2l-0.2-0.1l-0.3,0l-5.9,0.1l-0.3,0l-0.2,0.1l-15.9,4.6l-18.6,1.5V12.5H87.5 M89.5,10.5
	h-80V90l21-1.8l16-4.7l5.9-0.1l17.8,5.3L89.5,90V10.5L89.5,10.5z"/>
<path d="M38.7,53.5c0,0,0.3-0.3,0.7-0.7c0.2-0.2,0.5-0.4,0.9-0.7c0.4-0.3,0.8-0.6,1.2-0.8c0.2-0.1,0.5-0.3,0.7-0.4
	c0.3-0.1,0.5-0.2,0.8-0.4c0.6-0.3,1.2-0.5,1.9-0.7c0.7-0.2,1.4-0.4,2.1-0.5c0.7-0.1,1.4-0.2,2.2-0.2l0.6,0c0.1,0,0.1,0,0.3,0l0.3,0
	c0.3,0,0.7,0.1,1,0.1c0.7,0.1,1.4,0.1,2.1,0.3c0.7,0.2,1.3,0.4,1.9,0.5c0.6,0.2,1.1,0.5,1.6,0.7c0.5,0.2,1,0.4,1.3,0.7
	c0.4,0.2,0.7,0.5,0.9,0.6c0.5,0.4,0.8,0.6,0.8,0.6L60,52.7c0,0-0.3-0.2-0.9-0.4c-0.3-0.1-0.6-0.3-1-0.5c-0.4-0.2-0.8-0.4-1.3-0.5
	c-0.5-0.2-1-0.3-1.6-0.5c-0.6-0.1-1.2-0.2-1.9-0.4c-0.6-0.2-1.3-0.2-2-0.2c-0.7,0-1.4-0.1-2.1-0.1c-0.7,0-1.4,0.1-2.1,0.2
	c-0.7,0.1-1.4,0.2-2,0.4c-0.6,0.2-1.3,0.3-1.8,0.5c-0.6,0.2-1.1,0.4-1.6,0.6c-0.5,0.2-0.9,0.4-1.3,0.6c-0.4,0.2-0.7,0.4-1,0.5
	C39,53.4,38.7,53.5,38.7,53.5L38.7,53.5z"/>
<path class="st1" d="M50,90"/>
</svg>
