<?xml version="1.0" encoding="utf-8"?>
<!-- Generator: Adobe Illustrator 16.0.0, SVG Export Plug-In . SVG Version: 6.00 Build 0)  -->
<!DOCTYPE svg PUBLIC "-//W3C//DTD SVG 1.1//EN" "http://www.w3.org/Graphics/SVG/1.1/DTD/svg11.dtd">
<svg version="1.1" id="Layer_1" xmlns="http://www.w3.org/2000/svg" xmlns:xlink="http://www.w3.org/1999/xlink" x="0px" y="0px"
	 width="100px" height="100px" viewBox="0 0 100 100" style="enable-background:new 0 0 100 100;" xml:space="preserve">
<style type="text/css">
<![CDATA[
	.st0{fill:#231F20;}
]]>
</style>
<path class="st0" d="M64,100h-2v-4h2V100z M64,88h-2v-4h2V88z M64,76h-2v-4h2V76z M64,64h-2v-4h2V64z M64,40h-2v-4h2V40z M64,28h-2
	v-4h2V28z M64,16h-2v-4h2V16z M64,4h-2V0h2V4z"/>
<path class="st0" d="M88,12v76H12V12H88 M90,10H10v80h80V10L90,10z"/>
<polygon class="st0" points="58.2,48.6 62.9,53.4 67.8,48.6 "/>
<g>
</g>
<g>
</g>
<g>
</g>
<g>
</g>
<g>
</g>
<g>
</g>
</svg>
