<?xml version="1.0" encoding="utf-8"?>
<!-- Generator: Adobe Illustrator 16.0.0, SVG Export Plug-In . SVG Version: 6.00 Build 0)  -->
<!DOCTYPE svg PUBLIC "-//W3C//DTD SVG 1.1//EN" "http://www.w3.org/Graphics/SVG/1.1/DTD/svg11.dtd">
<svg version="1.1" id="Layer_1" xmlns="http://www.w3.org/2000/svg" xmlns:xlink="http://www.w3.org/1999/xlink" x="0px" y="0px"
	 width="100px" height="100px" viewBox="0 0 100 100" style="enable-background:new 0 0 100 100;" xml:space="preserve">
<path d="M50.9,8.5L54.9,9l3.6,7l0.7,1.4l1.5-0.4l5.8-1.5l4.7,1.7l3.8,2.6l0.1,6.6l0,1.4l1.3,0.5L81,30L80.1,35l-0.3,1.8l1.8,0.5
	l7.4,1.8l-1.9,4.5l0,0.1l0,0.1l-1.7,5.6l-0.1,0.3l0,0.3l0.3,5.4l0,0.4l0.2,0.4l2.4,4.6l-6,2.2l-2,0.7l0.8,1.9l2.4,5.7l-6.2,0.1
	l-1.9,0l0,1.9l0,7.1l-2.9,3.6l-5.6,0.3l-5.9-0.1l-0.5,0l-0.4,0.2l-4.5,2l-4.9-1.4L49.8,85l-0.7,0.4l-5,2.5L40,86.4l-3.6-4.6
	l-0.9-1.2l-1.4,0.6l-7.2,2.9L23,81.2l-4.3-4.2l0,0l0,0l-3.8-3.3l2.7-7.1l0.4-0.9l-0.6-0.8l-2.7-4.2l0.2-5l0.4-5.4l0-0.1l0-0.1
	L15,45.1l2-4.5l0.2-0.4l0-0.5l-0.3-5.8l0-0.2l-0.1-0.2l-1.7-5.8l6.2-0.7l1-0.1l0.5-0.9l2.8-5.1l0-0.1l0-0.1l2.3-5.1l5.4-0.4l0.1,0
	l0.1,0l5.3-0.9l5.5,1.4l1.3,0.3l0.8-1.1L50.9,8.5 M50,6.4l-5.2,7.2l-5.9-1.5l-5.7,1l-6.5,0.5l-2.8,6.2L21,24.9l-8.5,1l2.4,8.1
	l0.3,5.8L13,44.7l0.2,5.3l-0.4,5.4L12.5,61l3.1,4.7l-3.2,8.4l4.9,4.2l4.4,4.3l4.9,3.7l8.3-3.3l3.9,5l5.4,2l5.8-2.9l5.6,1.6l5.1-2.3
	l6,0.1l6.6-0.3l3.9-4.8l0-7.8l9.1-0.2L82.8,65l8.2-3l-3.4-6.6L87.3,50l1.7-5.6l2.7-6.6L82,35.4l1.2-6.7l-6.1-2.1L77,18.9l-4.8-3.4
	l-5.5-2l-6.4,1.6l-4.1-7.9L50,6.4L50,6.4z"/>
</svg>
