<?xml version="1.0" encoding="utf-8"?>
<!-- Generator: Adobe Illustrator 16.0.0, SVG Export Plug-In . SVG Version: 6.00 Build 0)  -->
<!DOCTYPE svg PUBLIC "-//W3C//DTD SVG 1.1//EN" "http://www.w3.org/Graphics/SVG/1.1/DTD/svg11.dtd">
<svg version="1.1" id="Layer_1" xmlns="http://www.w3.org/2000/svg" xmlns:xlink="http://www.w3.org/1999/xlink" x="0px" y="0px"
	 width="100px" height="100px" viewBox="0 0 100 100" style="enable-background:new 0 0 100 100;" xml:space="preserve">
<g>
	<path d="M48.8,89.5l-2.7-3c9.7-8.7,15.3-21.2,15.3-34.3c0-15.6-7.8-30-20.8-38.5l2.2-3.3c14.2,9.3,22.6,25,22.6,41.9
		C65.4,66.4,59.3,80,48.8,89.5z"/>
</g>
<g>
	<path d="M42.4,70.1l-1.9-0.7c1.9-5.2,2.9-10.6,2.9-16.2c0-6.9-1.5-13.6-4.4-19.8l1.8-0.8c3,6.5,4.5,13.4,4.5,20.6
		C45.4,59,44.4,64.7,42.4,70.1z"/>
</g>
<g>
	<polygon points="45.9,71.5 39.4,74.3 36.6,67.8 	"/>
</g>
</svg>
