<?xml version="1.0" encoding="utf-8"?>
<!-- Generator: Adobe Illustrator 16.0.0, SVG Export Plug-In . SVG Version: 6.00 Build 0)  -->
<!DOCTYPE svg PUBLIC "-//W3C//DTD SVG 1.1//EN" "http://www.w3.org/Graphics/SVG/1.1/DTD/svg11.dtd">
<svg version="1.1" id="Layer_1" xmlns="http://www.w3.org/2000/svg" xmlns:xlink="http://www.w3.org/1999/xlink" x="0px" y="0px"
	 width="100px" height="100px" viewBox="0 0 100 100" style="enable-background:new 0 0 100 100;" xml:space="preserve">
<path d="M50.2,73c4,0,7.8,1.4,10.8,3.9l-11,11L39.3,77.2c0.2-0.2,0.4-0.4,0.7-0.7C42.9,74.2,46.5,73,50.2,73 M50.2,71
	c-4.4,0-8.5,1.5-11.7,4c-0.7,0.7-1.4,1.4-2.2,2.1L50,90.8l13.9-13.9C60.5,73.2,55.6,71,50.2,71L50.2,71z"/>
<path d="M77.1,39.2L87.9,50L77.1,60.8c-2.5-3-3.9-6.8-3.9-10.8C73.2,46.1,74.6,42.3,77.1,39.2 M77.1,36.4c-0.4,0.4-0.8,0.8-1.2,1.2
	c-2.9,3.3-4.6,7.7-4.6,12.4c0,5.4,2.2,10.2,5.8,13.7L90.8,50L77.1,36.4L77.1,36.4z"/>
<path d="M56,54.5c6.8,1.2,13.1,4.5,18,9.4l-9.3,9.3C59.9,68,56.9,61.5,56,54.5 M53.7,52.2c0.6,9.4,4.6,17.8,10.9,23.9L76.8,64
	C71,57.5,62.9,53.1,53.7,52.2L53.7,52.2z"/>
<path d="M50,12.1l11,11c-3,2.5-6.8,3.9-10.8,3.9c-4.1,0-8-1.4-11.1-4.1L50,12.1 M50,9.2L36.3,22.9c3.5,3.7,8.4,6.1,13.9,6.1
	c5.4,0,10.2-2.2,13.7-5.8L50,9.2L50,9.2z"/>
<path d="M64.7,26.7l9.6,9.6c-5.2,4.7-11.4,7.7-18.3,8.8C57,38.3,60,31.9,64.7,26.7 M64.6,23.9C58.4,30,54.4,38.3,53.8,47.5
	c8.5-0.8,16.2-4.4,22.1-9.9c0.4-0.4,0.8-0.9,1.2-1.3L64.6,23.9L64.6,23.9z"/>
<path d="M22.6,39.5c2.4,3,3.6,6.7,3.6,10.5c0,3.9-1.3,7.5-3.6,10.5L12.1,50L22.6,39.5 M22.7,36.6L9.2,50l13.4,13.4
	c3.4-3.4,5.6-8.2,5.6-13.4S26.1,40,22.7,36.6L22.7,36.6z"/>
<path d="M46.1,54.2c-0.8,7.2-3.9,14-8.9,19.3c-0.3,0.2-0.6,0.5-0.9,0.7L26,63.9C31.5,58.5,38.5,55.1,46.1,54.2 M48.3,52
	c-10,0.5-18.8,5-25.1,11.9l13.1,13.1c0.7-0.7,1.4-1.4,2.2-2.1C44.3,69,47.9,60.9,48.3,52L48.3,52z"/>
<path d="M35.9,26.1c5.4,5.2,8.9,11.9,10,19.3c-7.5-0.9-14.4-4.1-20-9.3L35.9,26.1 M35.9,23.4L23.1,36.1c6.4,6.7,15.2,11,25.1,11.5
	C47.4,37.9,42.8,29.4,35.9,23.4L35.9,23.4z"/>
</svg>
