<?xml version="1.0" encoding="utf-8"?>
<!-- Generator: Adobe Illustrator 16.0.0, SVG Export Plug-In . SVG Version: 6.00 Build 0)  -->
<!DOCTYPE svg PUBLIC "-//W3C//DTD SVG 1.1//EN" "http://www.w3.org/Graphics/SVG/1.1/DTD/svg11.dtd">
<svg version="1.1" id="Layer_1" xmlns="http://www.w3.org/2000/svg" xmlns:xlink="http://www.w3.org/1999/xlink" x="0px" y="0px"
	 width="100px" height="100px" viewBox="0 0 100 100" style="enable-background:new 0 0 100 100;" xml:space="preserve">
<g>
	<g>
		<polygon points="90.5,91.5 8.5,91.5 8.5,10.5 10.5,10.5 10.5,89.5 88.5,89.5 88.5,10.5 90.5,10.5 		"/>
	</g>
	<g>
		<path d="M85.5,53.7v0.8h0.7c-5-1-5.4-2.2-10.4-2.2c-5,0-5,1.2-10.1,1.2c-5,0-5-1.5-10.1-1.5c-5,0-5,1.3-10.1,1.3s-5-1.4-10.1-1.4
			c-5,0-5,1.4-10.1,1.4c-5,0-5.7-2.3-10.7-1.4c-0.8,0.1-1.2,1.3-1.2,2.2v32.5h72V53.7L85.5,53.7z"/>
	</g>
	<g>
		<path d="M49.5,26"/>
	</g>
	<g>
		<path d="M50.5,22.6c2.9,4.7,4.3,9.2,4.6,10.1l0,0.5c0,2.4-2,4.3-4.4,4.3h-0.5c-2.4,0-4.4-1.8-4.4-4.3l0-0.7
			C46.2,31.7,47.6,27.2,50.5,22.6 M50.5,19l-0.2,0.4c-4.5,6.3-6.3,13-6.3,13l-0.1,0.9c0,3.5,2.9,6.3,6.4,6.3h0.5
			c3.5,0,6.4-2.8,6.4-6.3l-0.1-0.9c0,0-1.8-6.7-6.3-13L50.5,19L50.5,19z"/>
	</g>
</g>
</svg>
