<?xml version="1.0" encoding="utf-8"?>
<!-- Generator: Adobe Illustrator 16.0.0, SVG Export Plug-In . SVG Version: 6.00 Build 0)  -->
<!DOCTYPE svg PUBLIC "-//W3C//DTD SVG 1.1//EN" "http://www.w3.org/Graphics/SVG/1.1/DTD/svg11.dtd">
<svg version="1.1" id="Layer_1" xmlns="http://www.w3.org/2000/svg" xmlns:xlink="http://www.w3.org/1999/xlink" x="0px" y="0px"
	 width="100px" height="100px" viewBox="0 0 100 100" style="enable-background:new 0 0 100 100;" xml:space="preserve">
<rect x="9.5" y="10.5" width="80" height="2"/>
<path d="M29.5,17.5c0.6,0,1,0.4,1,1v17c0,0.6-0.2,1-0.8,1h-17c-0.6,0-1.2-0.4-1.2-1v-17c0-0.6,0.7-1,1.2-1H29.5 M29.8,15.5h-17
	c-1.7,0-3.2,1.3-3.2,3v17c0,1.7,1.6,3,3.2,3h17c1.7,0,2.8-1.3,2.8-3v-17c0-1.7-1.2-3-2.9-3H29.8z"/>
<path d="M87.5,17.5c0.6,0,1,0.4,1,1v17c0,0.6-0.7,1-1.2,1h-17c-0.6,0-0.8-0.4-0.8-1v-17c0-0.6,0.2-1,0.8-1H87.5 M87.2,15.5h-17
	c-1.7,0-2.8,1.3-2.8,3v17c0,1.7,1.1,3,2.8,3h17c1.7,0,3.2-1.3,3.2-3v-17c0-1.7-1.5-3-3.1-3H87.2z"/>
<path d="M58.5,17.5c0.6,0,1,0.4,1,1v17c0,0.6-0.2,1-0.8,1h-17c-0.6,0-1.2-0.4-1.2-1v-17c0-0.6,0.7-1,1.2-1H58.5 M58.8,15.5h-17
	c-1.7,0-3.2,1.3-3.2,3v17c0,1.7,1.6,3,3.2,3h17c1.7,0,2.8-1.3,2.8-3v-17c0-1.7-1.2-3-2.9-3H58.8z"/>
<rect x="9.5" y="43.5" width="80" height="2"/>
<path d="M29.5,50.5c0.6,0,1,0.4,1,1v17c0,0.6-0.2,1-0.8,1h-17c-0.6,0-1.2-0.4-1.2-1v-17c0-0.6,0.7-1,1.2-1H29.5 M29.8,48.5h-17
	c-1.7,0-3.2,1.3-3.2,3v17c0,1.7,1.6,3,3.2,3h17c1.7,0,2.8-1.3,2.8-3v-17c0-1.7-1.2-3-2.9-3H29.8z"/>
<path d="M87.5,50.5c0.6,0,1,0.4,1,1v17c0,0.6-0.7,1-1.2,1h-17c-0.6,0-0.8-0.4-0.8-1v-17c0-0.6,0.2-1,0.8-1H87.5 M87.2,48.5h-17
	c-1.7,0-2.8,1.3-2.8,3v17c0,1.7,1.1,3,2.8,3h17c1.7,0,3.2-1.3,3.2-3v-17c0-1.7-1.5-3-3.1-3H87.2z"/>
<path d="M58.5,50.5c0.6,0,1,0.4,1,1v17c0,0.6-0.2,1-0.8,1h-17c-0.6,0-1.2-0.4-1.2-1v-17c0-0.6,0.7-1,1.2-1H58.5 M58.8,48.5h-17
	c-1.7,0-3.2,1.3-3.2,3v17c0,1.7,1.6,3,3.2,3h17c1.7,0,2.8-1.3,2.8-3v-17c0-1.7-1.2-3-2.9-3H58.8z"/>
</svg>
