<?xml version="1.0" encoding="utf-8"?>
<!-- Generator: Adobe Illustrator 16.0.0, SVG Export Plug-In . SVG Version: 6.00 Build 0)  -->
<!DOCTYPE svg PUBLIC "-//W3C//DTD SVG 1.1//EN" "http://www.w3.org/Graphics/SVG/1.1/DTD/svg11.dtd">
<svg version="1.1" id="Layer_1" xmlns="http://www.w3.org/2000/svg" xmlns:xlink="http://www.w3.org/1999/xlink" x="0px" y="0px"
	 width="100px" height="100px" viewBox="0 0 100 100" style="enable-background:new 0 0 100 100;" xml:space="preserve">
<g>
	<g>
		<path d="M43.3,22.3c-19.8,0-26.7-4.5-28.3-5.8H9.5v-2h6.3l0.3,0.3c0.1,0.1,9.5,8.7,48,4.1c7.5-0.9,18.6-3.3,22.3-4.1
			c1.5-0.3,1.5-0.3,1.6-0.3h1.4v2h-1.3c-0.2,0-0.6,0.1-1.3,0.3c-4.1,0.9-15,3.2-22.5,4.1C56.1,21.9,49.2,22.3,43.3,22.3z"/>
	</g>
	<g>
		<path d="M43.2,34.5c-19.9,0-26.9-8.7-28.4-11H9.5v-2H16l0.3,0.5c0.1,0.2,9.4,16.6,47.7,7.8c7.4-1.7,18.6-6.2,22.3-7.7
			c1.6-0.6,1.6-0.6,1.8-0.6h1.4v2h-1.3C88,23.6,87.6,23.7,87,24c-4.1,1.7-15,6.1-22.6,7.8C56.1,33.7,49.1,34.5,43.2,34.5z"/>
	</g>
	<g>
		<path d="M43.4,57c-4.9,0-9.3-1-13.3-2.9c-10.4-5-14.4-14.8-15.3-17.6H9.5v-2h6.7l0.2,0.7c0,0.1,3.4,11.7,14.5,17.1
			c8.7,4.2,19.8,3.5,32.9-2.1c7.4-3.1,18.5-11.6,22.2-14.4c1.6-1.2,1.6-1.2,2-1.2h1.4v2h-1.1c-0.2,0.2-0.6,0.5-1.1,0.8
			c-4.1,3.1-15,11.4-22.6,14.6C56.9,55.3,49.8,57,43.4,57z"/>
	</g>
	<g>
		<path d="M43.3,86.3c-2.2,0-4.4-0.4-6.4-1.2c-7.4-2.8-13.5-10.5-18-22.9c-2.7-7.4-4-14.4-4.4-16.8H9.5v-2h6.8l0.1,0.9
			c0,0.3,4.8,32.7,21.2,38.9c7.3,2.8,16.1-0.1,26-8.5C71,68.5,82.2,51.6,85.8,46c1.7-2.5,1.7-2.5,2.2-2.5h1.4v2h-0.9
			c-0.2,0.4-0.6,1-1.1,1.6c-4.1,6.2-15,22.7-22.6,29.2C57.1,83,49.9,86.3,43.3,86.3z"/>
	</g>
</g>
</svg>
