<?xml version="1.0" encoding="utf-8"?>
<!-- Generator: Adobe Illustrator 16.0.0, SVG Export Plug-In . SVG Version: 6.00 Build 0)  -->
<!DOCTYPE svg PUBLIC "-//W3C//DTD SVG 1.1//EN" "http://www.w3.org/Graphics/SVG/1.1/DTD/svg11.dtd">
<svg version="1.1" id="Layer_1" xmlns="http://www.w3.org/2000/svg" xmlns:xlink="http://www.w3.org/1999/xlink" x="0px" y="0px"
	 width="100px" height="100px" viewBox="0 0 100 100" style="enable-background:new 0 0 100 100;" xml:space="preserve">
<polygon points="34.5,90.5 32.5,90.5 32.5,11.5 9.5,11.5 9.5,9.5 34.5,9.5 "/>
<path d="M10.5,89.8"/>
<polygon points="70.5,77.2 65.2,71.8 66.6,70.4 70.5,74.3 74.4,70.5 75.8,71.9 "/>
<rect x="69.5" y="56.5" width="2" height="19"/>
<path d="M87.5,11.5v34h-34v-34H87.5 M89.5,9.5h-38v38h38V9.5L89.5,9.5z"/>
<path d="M88.4,11.2"/>
<path d="M53.5,46.1"/>
<rect x="70" y="4" transform="matrix(0.7071 0.7071 -0.7071 0.7071 41.0224 -41.7907)" width="2" height="49.3"/>
</svg>
