<?xml version="1.0" encoding="utf-8"?>
<!-- Generator: Adobe Illustrator 16.0.0, SVG Export Plug-In . SVG Version: 6.00 Build 0)  -->
<!DOCTYPE svg PUBLIC "-//W3C//DTD SVG 1.1//EN" "http://www.w3.org/Graphics/SVG/1.1/DTD/svg11.dtd">
<svg version="1.1" id="Layer_1" xmlns="http://www.w3.org/2000/svg" xmlns:xlink="http://www.w3.org/1999/xlink" x="0px" y="0px"
	 width="100px" height="100px" viewBox="0 0 100 100" style="enable-background:new 0 0 100 100;" xml:space="preserve">
<g>
	<path d="M63.5,37.5v26h-26v-26H63.5 M65.5,35.5h-30v30h30V35.5L65.5,35.5z"/>
</g>
<g>
	<rect x="49.4" y="31.9" transform="matrix(0.7071 0.7071 -0.7071 0.7071 50.742 -20.7658)" width="2" height="38"/>
</g>
<g>
	<path d="M35.4,89.6C19.6,83.6,9,68.2,9,51.3c0-22.6,18.4-41,41-41s41,18.4,41,41c0,16.5-9.8,31.3-25,37.8l-0.8-1.8
		C79.7,81.1,89,67,89,51.3c0-21.5-17.5-39-39-39s-39,17.5-39,39C11,67.4,21.1,82,36.1,87.8L35.4,89.6z"/>
</g>
</svg>
