<?xml version="1.0" encoding="utf-8"?>
<!-- Generator: Adobe Illustrator 16.0.0, SVG Export Plug-In . SVG Version: 6.00 Build 0)  -->
<!DOCTYPE svg PUBLIC "-//W3C//DTD SVG 1.1//EN" "http://www.w3.org/Graphics/SVG/1.1/DTD/svg11.dtd">
<svg version="1.1" id="Layer_1" xmlns="http://www.w3.org/2000/svg" xmlns:xlink="http://www.w3.org/1999/xlink" x="0px" y="0px"
	 width="100px" height="100px" viewBox="0 0 100 100" style="enable-background:new 0 0 100 100;" xml:space="preserve">
<polygon points="91.4,90.5 8.6,90.5 35.1,9.2 37,9.8 11.4,88.5 88.6,88.5 64.1,9.7 66,9 "/>
<path d="M62.5,55.5v26h-26v-26H62.5 M64.5,53.5h-30v30h30V53.5L64.5,53.5z"/>
<rect x="49.2" y="49.5" transform="matrix(0.7071 0.7071 -0.7071 0.7071 62.9054 -15.5271)" width="2" height="37.3"/>
<polygon points="20.1,19.7 18.7,18.3 22.6,14.4 18.8,10.6 20.2,9.1 25.5,14.4 "/>
<rect x="9.5" y="13.5" width="14" height="2"/>
<polygon points="79.9,19.7 74.6,14.5 79.9,9.1 81.3,10.6 77.4,14.5 81.3,18.3 "/>
<rect x="75.5" y="13.5" width="14" height="2"/>
</svg>
