<?xml version="1.0" encoding="utf-8"?>
<!-- Generator: Adobe Illustrator 16.0.0, SVG Export Plug-In . SVG Version: 6.00 Build 0)  -->
<!DOCTYPE svg PUBLIC "-//W3C//DTD SVG 1.1//EN" "http://www.w3.org/Graphics/SVG/1.1/DTD/svg11.dtd">
<svg version="1.1" id="Layer_1" xmlns="http://www.w3.org/2000/svg" xmlns:xlink="http://www.w3.org/1999/xlink" x="0px" y="0px"
	 width="100px" height="100px" viewBox="0 0 100 100" style="enable-background:new 0 0 100 100;" xml:space="preserve">
<circle cx="44" cy="38.5" r="11.7"/>
<polygon points="73.6,26.6 71.6,26.2 72.7,20.8 67.3,19.7 67.7,17.8 75,19.2 "/>
<rect x="57.9" y="12" transform="matrix(0.555 0.8318 -0.8318 0.555 51.1073 -35.6714)" width="2" height="35.8"/>
<circle cx="71" cy="51.4" r="11.7"/>
<polygon points="90.3,82.4 83,80.9 83.3,79 88.8,80.1 89.8,74.7 91.8,75.1 "/>
<rect x="61.7" y="65.3" transform="matrix(0.555 0.8318 -0.8318 0.555 90.5802 -36.7508)" width="35.8" height="2"/>
<circle cx="43.4" cy="66" r="11.7"/>
<polygon points="11.9,63.9 7.8,57.8 14.1,53.6 15.2,55.2 10.6,58.3 13.6,62.8 "/>
<rect x="8.9" y="60.6" transform="matrix(0.9807 0.1958 -0.1958 0.9807 12.5759 -4.049)" width="35.8" height="2"/>
</svg>
