<?xml version="1.0" encoding="utf-8"?>
<!-- Generator: Adobe Illustrator 16.0.0, SVG Export Plug-In . SVG Version: 6.00 Build 0)  -->
<!DOCTYPE svg PUBLIC "-//W3C//DTD SVG 1.1//EN" "http://www.w3.org/Graphics/SVG/1.1/DTD/svg11.dtd">
<svg version="1.1" id="Layer_1" xmlns="http://www.w3.org/2000/svg" xmlns:xlink="http://www.w3.org/1999/xlink" x="0px" y="0px"
	 width="100px" height="100px" viewBox="0 0 100 100" style="enable-background:new 0 0 100 100;" xml:space="preserve">
<path d="M61.5,37.5v26h-26v-26H61.5 M63.5,35.5h-30v30h30V35.5L63.5,35.5z"/>
<path d="M89.5,10.5h-4v2h4V10.5L89.5,10.5z M77.5,10.5h-4v2h4V10.5L77.5,10.5z M65.5,10.5h-4v2h4V10.5L65.5,10.5z M53.5,10.5h-4v2h4
	V10.5L53.5,10.5z M41.5,10.5h-4v2h4V10.5L41.5,10.5z M29.5,10.5h-4v2h4V10.5L29.5,10.5z M17.5,10.5h-4v2h4V10.5L17.5,10.5z
	 M11.5,14.5h-2v4h2V14.5L11.5,14.5z M11.5,26.5h-2v4h2V26.5L11.5,26.5z M11.5,38.5h-2v4h2V38.5L11.5,38.5z M11.5,50.5h-2v4h2V50.5
	L11.5,50.5z M11.5,62.5h-2v4h2V62.5L11.5,62.5z M11.5,74.5h-2v4h2V74.5L11.5,74.5z M11.5,86.5h-2v4h2V86.5L11.5,86.5z M21.5,88.5h-4
	v2h4V88.5L21.5,88.5z M33.5,88.5h-4v2h4V88.5L33.5,88.5z M45.5,88.5h-4v2h4V88.5L45.5,88.5z M57.5,88.5h-4v2h4V88.5L57.5,88.5z
	 M69.5,88.5h-4v2h4V88.5L69.5,88.5z M81.5,88.5h-4v2h4V88.5L81.5,88.5z M89.5,86.5h-2v4h2V86.5L89.5,86.5z M89.5,74.5h-2v4h2V74.5
	L89.5,74.5z M89.5,62.5h-2v4h2V62.5L89.5,62.5z M89.5,50.5h-2v4h2V50.5L89.5,50.5z M89.5,38.5h-2v4h2V38.5L89.5,38.5z M89.5,26.5h-2
	v4h2V26.5L89.5,26.5z M89.5,14.5h-2v4h2V14.5L89.5,14.5z"/>
<polygon points="79.5,28.5 77.5,28.5 77.5,22.5 72.5,22.5 72.5,20.5 79.5,20.5 "/>
<rect x="72.8" y="19.5" transform="matrix(0.7071 0.7071 -0.7071 0.7071 40.1479 -44.4784)" width="1.9" height="13.5"/>
<polygon points="79.5,81.5 71.5,81.5 71.5,79.5 77.5,79.5 77.5,74.5 79.5,74.5 "/>
<rect x="66" y="73.9" transform="matrix(0.7071 0.7071 -0.7071 0.7071 74.3696 -29.669)" width="14" height="2"/>
<polygon points="20.5,28.5 18.5,28.5 18.5,20.5 25.5,20.5 25.5,22.5 20.5,22.5 "/>
<rect x="17.6" y="25.3" transform="matrix(0.7071 0.7071 -0.7071 0.7071 25.6945 -9.4797)" width="13.4" height="1.9"/>
<polygon points="26.5,81.5 18.5,81.5 18.5,74.5 20.5,74.5 20.5,79.5 26.5,79.5 "/>
<rect x="24" y="67.9" transform="matrix(0.7071 0.7071 -0.7071 0.7071 60.3159 4.2722)" width="2" height="14"/>
</svg>
