<?xml version="1.0" encoding="utf-8"?>
<!-- Generator: Adobe Illustrator 16.0.0, SVG Export Plug-In . SVG Version: 6.00 Build 0)  -->
<!DOCTYPE svg PUBLIC "-//W3C//DTD SVG 1.1//EN" "http://www.w3.org/Graphics/SVG/1.1/DTD/svg11.dtd">
<svg version="1.1" id="Layer_1" xmlns="http://www.w3.org/2000/svg" xmlns:xlink="http://www.w3.org/1999/xlink" x="0px" y="0px"
	 width="100px" height="100px" viewBox="0 0 100 100" style="enable-background:new 0 0 100 100;" xml:space="preserve">
<path d="M87.5,12.5v76h-76v-76H87.5 M89.5,10.5h-80v80h80V10.5L89.5,10.5z"/>
<path d="M64.5,37.5h-2V16.4c0-2.8-4.6-4.1-4.6-4.2l0.4-1.5c0.2,0.1,6.2,1.4,6.2,5.7V37.5z"/>
<path d="M87.7,43.2c0,0-1.5-4.7-4.2-4.7h-21v-2h21c4.3,0,5.8,5.3,5.9,5.5L87.7,43.2z"/>
<polygon points="89.3,40.8 60.9,11.4 61.6,10.7 89.3,39.5 "/>
<circle cx="17" cy="17" r="1"/>
<circle cx="23" cy="23" r="1"/>
<circle cx="29" cy="29" r="1"/>
<circle cx="35" cy="35" r="1"/>
<circle cx="41" cy="41" r="1"/>
<circle cx="47" cy="47" r="1"/>
<circle cx="53" cy="53" r="1"/>
<circle cx="59" cy="59" r="1"/>
<circle cx="65" cy="65" r="1"/>
<circle cx="71" cy="71" r="1"/>
<circle cx="77" cy="77" r="1"/>
<circle cx="83" cy="83" r="1"/>
<circle cx="17" cy="83" r="1"/>
<circle cx="23" cy="77" r="1"/>
<circle cx="29" cy="71" r="1"/>
<circle cx="35" cy="65" r="1"/>
<circle cx="41" cy="59" r="1"/>
<circle cx="47" cy="53" r="1"/>
<circle cx="53" cy="47" r="1"/>
<circle cx="59" cy="41" r="1"/>
<circle cx="53" cy="41" r="1"/>
<circle cx="53" cy="35" r="1"/>
<circle cx="53" cy="29" r="1"/>
<circle cx="53" cy="23" r="1"/>
<circle cx="53" cy="17" r="1"/>
<circle cx="47" cy="41" r="1"/>
<circle cx="41" cy="35" r="1"/>
<circle cx="47" cy="35" r="1"/>
<circle cx="35" cy="29" r="1"/>
<circle cx="41" cy="29" r="1"/>
<circle cx="47" cy="29" r="1"/>
<circle cx="29" cy="23" r="1"/>
<circle cx="35" cy="23" r="1"/>
<circle cx="41" cy="23" r="1"/>
<circle cx="47" cy="23" r="1"/>
<circle cx="23" cy="17" r="1"/>
<circle cx="29" cy="17" r="1"/>
<circle cx="35" cy="17" r="1"/>
<circle cx="41" cy="17" r="1"/>
<circle cx="47" cy="17" r="1"/>
<circle cx="59" cy="35" r="1"/>
<circle cx="59" cy="29" r="1"/>
<circle cx="59" cy="23" r="1"/>
<circle cx="59" cy="17" r="1"/>
<circle cx="59" cy="53" r="1"/>
<circle cx="59" cy="47" r="1"/>
<circle cx="65" cy="53" r="1"/>
<circle cx="65" cy="47" r="1"/>
<circle cx="71" cy="53" r="1"/>
<circle cx="71" cy="47" r="1"/>
<circle cx="77" cy="53" r="1"/>
<circle cx="77" cy="47" r="1"/>
<circle cx="83" cy="53" r="1"/>
<circle cx="83" cy="47" r="1"/>
<circle cx="65" cy="59" r="1"/>
<circle cx="71" cy="59" r="1"/>
<circle cx="77" cy="59" r="1"/>
<circle cx="83" cy="59" r="1"/>
<circle cx="71" cy="65" r="1"/>
<circle cx="77" cy="65" r="1"/>
<circle cx="83" cy="65" r="1"/>
<circle cx="77" cy="71" r="1"/>
<circle cx="83" cy="71" r="1"/>
<circle cx="83" cy="77" r="1"/>
<circle cx="47" cy="59" r="1"/>
<circle cx="53" cy="59" r="1"/>
<circle cx="65" cy="41" r="1"/>
<circle cx="71" cy="41" r="1"/>
<circle cx="77" cy="41" r="1"/>
<circle cx="83" cy="41" r="1"/>
<circle cx="41" cy="53" r="1"/>
<circle cx="41" cy="47" r="1"/>
</svg>
