<?xml version="1.0" encoding="utf-8"?>
<!-- Generator: Adobe Illustrator 16.0.0, SVG Export Plug-In . SVG Version: 6.00 Build 0)  -->
<!DOCTYPE svg PUBLIC "-//W3C//DTD SVG 1.1//EN" "http://www.w3.org/Graphics/SVG/1.1/DTD/svg11.dtd">
<svg version="1.1" id="Layer_1" xmlns="http://www.w3.org/2000/svg" xmlns:xlink="http://www.w3.org/1999/xlink" x="0px" y="0px"
	 width="100px" height="100px" viewBox="0 0 100 100" style="enable-background:new 0 0 100 100;" xml:space="preserve">
<path d="M49.2,52.6c0.4,0.8,0.9,1.6,1.6,2.4l0,0l0,0c0,0,3.2,3.6,4.2,7.7c0.1,0.4,0.1,0.8,0.1,1.3c0,0.2,0,0.3,0,0.4
	c0,0.1,0,0.1,0,0.2c-0.3,2.8-2.6,5-5.5,5c-0.2,0-0.4,0-0.5,0c-1.5-0.1-2.9-0.8-3.8-2c-1-1.1-1.4-2.6-1.3-4l0-0.2l0-0.2
	C43.9,63.1,43.9,59.8,49.2,52.6 M49.8,48.4c-8.2,10.3-7.8,14.9-7.8,14.9c-0.4,4.2,2.7,7.8,6.9,8.2c0.2,0,0.5,0,0.7,0
	c3.9,0,7.2-2.7,7.5-6.7c0-0.2,0-0.3,0-0.3h0c0,0,0-0.3,0-0.3c0-0.6-0.1-1.3-0.2-1.9c-1.1-4.7-4.6-8.6-4.6-8.6
	C50.2,51.2,49.8,48.4,49.8,48.4L49.8,48.4z"/>
<rect x="37.4" y="80.4" transform="matrix(0.7071 0.7071 -0.7071 0.7071 71.9349 -10.9162)" width="23.6" height="2"/>
<rect x="48.5" y="68.7" transform="matrix(0.7071 0.7071 -0.7071 0.7071 71.7877 -11.2717)" width="2" height="24.6"/>
<path d="M65.5,12.5v31h-31v-31H65.5 M67.5,10.5h-35v35h35V10.5L67.5,10.5z"/>
<rect x="48.9" y="4.9" transform="matrix(0.7071 0.7071 -0.7071 0.7071 34.2575 -27.1279)" width="2" height="45.8"/>
</svg>
