<?xml version="1.0" encoding="utf-8"?>
<!-- Generator: Adobe Illustrator 16.0.0, SVG Export Plug-In . SVG Version: 6.00 Build 0)  -->
<!DOCTYPE svg PUBLIC "-//W3C//DTD SVG 1.1//EN" "http://www.w3.org/Graphics/SVG/1.1/DTD/svg11.dtd">
<svg version="1.1" id="Layer_1" xmlns="http://www.w3.org/2000/svg" xmlns:xlink="http://www.w3.org/1999/xlink" x="0px" y="0px"
	 width="100px" height="100px" viewBox="0 0 100 100" style="enable-background:new 0 0 100 100;" xml:space="preserve">
<g>
	<path d="M87.5,12.5v76h-76v-76H87.5 M89.5,10.5h-80v80h80V10.5L89.5,10.5z"/>
	<path d="M85.5,30.2v0.3h0.2c-5-1-5.4-2-10.4-2c-5,0-5,1.3-10.1,1.3c-5,0-5-1.5-10.1-1.5c-5,0-5,1.4-10.1,1.4s-5-1.4-10.1-1.4
		c-5,0-5,1.4-10.1,1.4s-5.5-2.2-10.5-1.4c-0.8,0.1-0.9,1.3-0.9,2.2v56h72V30.2L85.5,30.2z"/>
</g>
</svg>
