<?xml version="1.0" encoding="utf-8"?>
<!-- Generator: Adobe Illustrator 16.0.0, SVG Export Plug-In . SVG Version: 6.00 Build 0)  -->
<!DOCTYPE svg PUBLIC "-//W3C//DTD SVG 1.1//EN" "http://www.w3.org/Graphics/SVG/1.1/DTD/svg11.dtd">
<svg version="1.1" id="Layer_1" xmlns="http://www.w3.org/2000/svg" xmlns:xlink="http://www.w3.org/1999/xlink" x="0px" y="0px"
	 width="100px" height="100px" viewBox="0 0 100 100" style="enable-background:new 0 0 100 100;" xml:space="preserve">
<path d="M64.5,72.1c-7.3,0-17.7-2.4-22.8-4.1c-3.3-1-7-1.5-10.7-1.5c-6.4,0-12.3,1.4-16.6,4l-1-1.7c4.7-2.7,10.9-4.3,17.6-4.3
	c4,0,7.8,0.5,11.3,1.6c5.1,1.6,15.1,4,22.2,4c7.8,0,15.4-1.3,21.3-3.6l0.7,1.9C80.4,70.8,72.5,72.1,64.5,72.1z"/>
<path d="M64.5,67.1c-7.3,0-17.7-2.4-22.8-4.1c-3.3-1-7-1.5-10.7-1.5c-6.4,0-12.3,1.4-16.6,4l-1-1.7c4.7-2.7,10.9-4.3,17.6-4.3
	c4,0,7.8,0.5,11.3,1.6c5.1,1.6,15.1,4,22.2,4c7.8,0,15.4-1.3,21.3-3.6l0.7,1.9C80.4,65.8,72.5,67.1,64.5,67.1z"/>
<path d="M64.5,62.1c-7.3,0-17.7-2.4-22.8-4.1c-3.3-1-7-1.5-10.7-1.5c-6.4,0-12.3,1.4-16.6,4l-1-1.7c4.7-2.7,10.9-4.3,17.6-4.3
	c4,0,7.8,0.5,11.3,1.6c5.1,1.6,15.1,4,22.2,4c7.8,0,15.4-1.3,21.3-3.6l0.7,1.9C80.4,60.8,72.5,62.1,64.5,62.1z"/>
<polygon points="53.1,38.7 51.7,37.3 55.6,33.4 51.8,29.6 53.2,28.2 58.5,33.4 "/>
<rect x="42.5" y="32.5" width="14" height="2"/>
</svg>
