<?xml version="1.0" encoding="utf-8"?>
<!-- Generator: Adobe Illustrator 16.0.0, SVG Export Plug-In . SVG Version: 6.00 Build 0)  -->
<!DOCTYPE svg PUBLIC "-//W3C//DTD SVG 1.1//EN" "http://www.w3.org/Graphics/SVG/1.1/DTD/svg11.dtd">
<svg version="1.1" id="Layer_1" xmlns="http://www.w3.org/2000/svg" xmlns:xlink="http://www.w3.org/1999/xlink" x="0px" y="0px"
	 width="100px" height="100px" viewBox="0 0 100 100" style="enable-background:new 0 0 100 100;" xml:space="preserve">
<rect x="46.5" y="8.5" width="3" height="31"/>
<path d="M48.5,41.3c-0.4,0-0.8-0.1-1-0.4L42,35.5l2.1-2.1l4.4,4.3l4-4.1l2.1,2.1l-5.1,5.2C49.3,41.1,48.9,41.3,48.5,41.3z"/>
<path d="M4.2,77.6L1.7,76c5.7-8.9,15.1-14.6,25.7-15.5l0.3,3C17.9,64.3,9.4,69.5,4.2,77.6z"/>
<path d="M24.1,69.1l-2.4-1.8l3.6-4.9l-4.7-3.4l1.8-2.4l5.9,4.3c0.7,0.5,0.8,1.4,0.3,2.1L24.1,69.1z"/>
<path d="M74.9,46.8l-0.2-3c6-0.3,18.5-6.1,20.9-16l2.9,0.7C95.8,40,82,46.4,74.9,46.8z"/>
<path d="M79.6,51l-5.7-4.5c-0.7-0.5-0.8-1.5-0.2-2.1l4.7-6l2.4,1.9L77,45.1l4.5,3.6L79.6,51z"/>
<g>
	<polygon points="14.5,19.5 40.7,19.5 40.7,17.5 12.5,17.5 12.5,58.6 14.5,57.7 	"/>
	<polygon points="88.5,17.5 55.8,17.5 55.8,19.5 86.5,19.5 86.5,35.1 88.5,34.5 	"/>
	<polygon points="86.5,54.9 86.5,90.5 14.5,90.5 14.5,74.2 12.5,75.1 12.5,92.5 88.5,92.5 88.5,54.4 	"/>
</g>
</svg>
