<?xml version="1.0" encoding="utf-8"?>
<!-- Generator: Adobe Illustrator 16.0.0, SVG Export Plug-In . SVG Version: 6.00 Build 0)  -->
<!DOCTYPE svg PUBLIC "-//W3C//DTD SVG 1.1//EN" "http://www.w3.org/Graphics/SVG/1.1/DTD/svg11.dtd">
<svg version="1.1" id="Layer_1" xmlns="http://www.w3.org/2000/svg" xmlns:xlink="http://www.w3.org/1999/xlink" x="0px" y="0px"
	 width="100px" height="100px" viewBox="0 0 100 100" style="enable-background:new 0 0 100 100;" xml:space="preserve">
<style type="text/css">
<![CDATA[
	.st0{fill:#FFFFFF;}
]]>
</style>
<rect x="36.7" y="54.6" transform="matrix(0.9549 0.2968 -0.2968 0.9549 19.4011 -8.5053)" width="2" height="10.1"/>
<path d="M66.8,78l-1.2-1.6c5.5-4.1,9.2-10.1,10.5-16.8c0.3-1.6,0.5-3.1,0.5-5.1h2c0,2-0.2,3.7-0.5,5.4C76.7,67.1,72.7,73.6,66.8,78z
	"/>
<path d="M18.1,54.8"/>
<path d="M29.6,22.8c2.2,0,4.9,1.4,4.9,3.4v21.1c0,1.7-0.3,3.2-2,3.2h-4c-1.7,0-4-1.5-4-3.2V26.8C25.5,24.5,27.1,22.8,29.6,22.8
	 M29.8,20.8c-3,0-5.6,1.8-7,5.2l-0.3,0.4v0.4v20.5c0,2.8,3.2,5.2,6,5.2h4c2.6,0,4-2.1,4-5.2V26.2C36.5,23,33.2,20.8,29.8,20.8
	L29.8,20.8z"/>
<path d="M43.6,22.8c2.2,0,4.9,1.4,4.9,3.4v25.1c0,1.7-0.3,3.2-2,3.2h-4c-1.7,0-4-1.5-4-3.2V26.8C39.5,24.5,41.1,22.8,43.6,22.8
	 M43.8,20.8c-3,0-5.6,1.8-7,5.2l-0.3,0.4v0.4v24.5c0,2.8,3.2,5.2,6,5.2h4c2.6,0,4-2.1,4-5.2V26.2C50.5,23,47.2,20.8,43.8,20.8
	L43.8,20.8z"/>
<path d="M56.6,22.8c2.2,0,4.9,1.4,4.9,3.4v23.1c0,1.7-0.3,3.2-2,3.2h-4c-1.7,0-4-1.5-4-3.2V26.8C52.5,24.5,54.1,22.8,56.6,22.8
	 M56.8,20.8c-3,0-5.6,1.8-7,5.2l-0.3,0.4v0.4v22.5c0,2.8,3.2,5.2,6,5.2h4c2.6,0,4-2.1,4-5.2V26.2C63.5,23,60.2,20.8,56.8,20.8
	L56.8,20.8z"/>
<path d="M69.6,22.8c2.5,0,4.5,1.8,4.8,4.2c0.1,0.2,0.1,0.5,0.1,0.8v21c0,1.7-1.2,2.7-2.9,2.7h-4c-1.7,0-3.1-1-3.1-2.7v-21
	c0-0.3,0.1-0.5,0.2-0.8C65,24.6,67.1,22.8,69.6,22.8 M69.6,20.8c-3.4,0-6.4,2.5-6.9,5.8c-0.1,0.4-0.2,0.8-0.2,1.2v21
	c0,2.8,2.3,4.7,5.1,4.7h4c2.8,0,4.9-1.9,4.9-4.7v-21c0-0.4,0-0.8-0.1-1.2C75.9,23.3,73,20.8,69.6,20.8L69.6,20.8z"/>
<path d="M22.1,33.5H9.9c-1.6,0-3.4,0.6-3.4,2.2v14.2c0,1.6,1.8,3.6,3.4,3.6H21L22.1,33.5z"/>
<path d="M22.5,47.3V33.5h-2v20h6v-2C24.5,50.8,22.5,49.6,22.5,47.3z"/>
<path d="M29.6,22.8c2.2,0,4.9,1.4,4.9,3.4v21.1c0,1.7-0.3,3.2-2,3.2h-4c-1.7,0-4-1.5-4-3.2V26.8C25.5,24.5,27.1,22.8,29.6,22.8
	 M29.8,20.8c-3,0-5.6,1.8-7,5.2l-0.3,0.4v0.4v20.5c0,2.8,3.2,5.2,6,5.2h4c2.6,0,4-2.1,4-5.2V26.2C36.5,23,33.2,20.8,29.8,20.8
	L29.8,20.8z"/>
<path d="M75.7,51.5h14.8c1.6,0,3.1-1.3,3.1-2.9V34.4c0-1.6-1.5-2.9-3.1-2.9H75.8L75.7,51.5z"/>
<path class="st0" d="M29,77.2c-5.7-2.1-9.8-7.6-9.8-14.1c0-1.8,0.3-3.4,0.9-5l13.5-15.3c0,0,4-7.2,8-3.2l10.3,7.7
	c0,0,9.3,1.8,12,4.1c0,0-10.3,17.5-24.7,3.5l-4.7-0.3"/>
<path d="M28.6,78.1c-6.2-2.3-10.4-8.3-10.4-15c0-1.8,0.3-3.6,0.9-5.3l0.1-0.2l13.5-15.4c0.4-0.8,2.7-4.4,5.7-4.8
	c0.9-0.1,2.3,0,3.7,1.4l10.1,7.5c1.7,0.3,9.6,2,12.2,4.3l0.6,0.5l-0.4,0.7c-0.2,0.3-5,8.3-12.7,9.3c-4.4,0.6-8.9-1.2-13.2-5.3
	l-4.3-0.3l0.1-2l5,0.4l0.3,0.3c4,3.9,7.9,5.6,11.8,5.1c5.5-0.7,9.4-5.7,10.8-7.6c-2.6-1.6-8.5-2.9-10.8-3.4l-0.2,0l-10.6-7.9
	c-0.7-0.7-1.4-1-2.1-0.9c-1.9,0.3-3.8,2.9-4.3,3.9l-0.1,0.2L20.9,58.6c-0.5,1.4-0.7,3-0.7,4.5c0,5.8,3.7,11.1,9.1,13.1L28.6,78.1z"
	/>
</svg>
