<?xml version="1.0" encoding="utf-8"?>
<!-- Generator: Adobe Illustrator 16.0.0, SVG Export Plug-In . SVG Version: 6.00 Build 0)  -->
<!DOCTYPE svg PUBLIC "-//W3C//DTD SVG 1.1//EN" "http://www.w3.org/Graphics/SVG/1.1/DTD/svg11.dtd">
<svg version="1.1" id="Layer_1" xmlns="http://www.w3.org/2000/svg" xmlns:xlink="http://www.w3.org/1999/xlink" x="0px" y="0px"
	 width="100px" height="100px" viewBox="0 0 100 100" style="enable-background:new 0 0 100 100;" xml:space="preserve">
<circle cx="50.4" cy="19.8" r="10"/>
<rect x="9.5" y="10.5" width="20" height="20"/>
<polygon points="67.1,30.5 78.6,10.5 90.1,30.5 "/>
<path d="M50.4,41.8c4.4,0,8,3.6,8,8s-3.6,8-8,8s-8-3.6-8-8S45.9,41.8,50.4,41.8 M50.4,39.8c-5.5,0-10,4.5-10,10c0,5.5,4.5,10,10,10
	s10-4.5,10-10C60.4,44.2,55.9,39.8,50.4,39.8L50.4,39.8z"/>
<path d="M28.5,42.5v16h-16v-16H28.5 M30.5,40.5h-20v20h20V40.5L30.5,40.5z"/>
<path d="M78.6,44.5l8.1,14H70.5L78.6,44.5 M78.6,40.5l-11.5,20h23.1L78.6,40.5L78.6,40.5z"/>
<path d="M50.4,70.8c5,0,9,4,9,9s-4,9-9,9c-5,0-9-4-9-9S45.4,70.8,50.4,70.8 M50.4,69.8c-5.5,0-10,4.5-10,10c0,5.5,4.5,10,10,10
	s10-4.5,10-10C60.4,74.2,55.9,69.8,50.4,69.8L50.4,69.8z"/>
<path d="M29.5,70.5v18h-18v-18H29.5 M30.5,69.5h-20v20h20V69.5L30.5,69.5z"/>
<path d="M78.6,72.5l9.8,17H68.8L78.6,72.5 M78.6,70.5l-11.5,20h23.1L78.6,70.5L78.6,70.5z"/>
<rect x="19.8" y="66.5" transform="matrix(0.7071 0.7071 -0.7071 0.7071 62.3853 9.0468)" width="1" height="26.6"/>
<rect x="7.3" y="79.5" transform="matrix(0.7071 0.7071 -0.7071 0.7071 62.5288 8.9883)" width="26.2" height="1"/>
<rect x="49.9" y="70.9" transform="matrix(0.7071 0.7071 -0.7071 0.7071 71.1953 -12.2225)" width="1" height="17.9"/>
<rect x="41" y="79.2" transform="matrix(0.7071 0.7071 -0.7071 0.7071 71.0342 -12.1558)" width="18.4" height="1"/>
<rect x="75" y="74.9" transform="matrix(0.7071 0.7071 -0.7071 0.7071 81.4116 -28.8613)" width="1" height="18"/>
<rect x="72.9" y="83.2" transform="matrix(0.7071 0.7071 -0.7071 0.7071 83.2209 -33.4804)" width="18.3" height="1"/>
</svg>
