<?xml version="1.0" encoding="utf-8"?>
<!-- Generator: Adobe Illustrator 16.0.0, SVG Export Plug-In . SVG Version: 6.00 Build 0)  -->
<!DOCTYPE svg PUBLIC "-//W3C//DTD SVG 1.1//EN" "http://www.w3.org/Graphics/SVG/1.1/DTD/svg11.dtd">
<svg version="1.1" id="Layer_1" xmlns="http://www.w3.org/2000/svg" xmlns:xlink="http://www.w3.org/1999/xlink" x="0px" y="0px"
	 width="100px" height="100px" viewBox="0 0 100 100" style="enable-background:new 0 0 100 100;" xml:space="preserve">
<g>
	<g>
		<path d="M72.5,32.5h-2v-7.1c0-2.3,1.9-3.4,2.9-3.7c2.9-1.2,3.9-2.5,3.9-5.4c0-3-2.3-5.3-5.3-5.3c-2.9,0-5.2,2.6-5.2,5.6h-2
			c0-4,3.2-7.6,7.2-7.6c4.1,0,7.3,3.2,7.3,7.3c0,4.3-2.1,6-5.2,7.3l-0.1,0c-0.1,0-1.5,0.5-1.5,1.8V32.5z"/>
	</g>
	<g>
		<g>
			<path d="M80.5,91.5h-60v-60h60V91.5z M22.5,89.5h56v-56h-56V89.5z"/>
		</g>
		<g>
			<rect x="48.9" y="19.9" transform="matrix(0.7071 0.7071 -0.7071 0.7071 57.5759 -17.4994)" width="2" height="81.8"/>
		</g>
	</g>
	<g>
		<path d="M29.5,32.5h-2v-7.1c0-2.3,1.9-3.4,2.9-3.7c2.9-1.2,3.9-2.5,3.9-5.4c0-3-2.3-5.3-5.3-5.3c-2.9,0-5.2,2.6-5.2,5.6h-2
			c0-4,3.2-7.6,7.2-7.6c4.1,0,7.3,3.2,7.3,7.3c0,4.3-2.1,6-5.2,7.3l-0.1,0c-0.1,0-1.5,0.5-1.5,1.8V32.5z"/>
	</g>
</g>
</svg>
