<?xml version="1.0" encoding="utf-8"?>
<!-- Generator: Adobe Illustrator 16.0.0, SVG Export Plug-In . SVG Version: 6.00 Build 0)  -->
<!DOCTYPE svg PUBLIC "-//W3C//DTD SVG 1.1//EN" "http://www.w3.org/Graphics/SVG/1.1/DTD/svg11.dtd">
<svg version="1.1" id="Layer_1" xmlns="http://www.w3.org/2000/svg" xmlns:xlink="http://www.w3.org/1999/xlink" x="0px" y="0px"
	 width="100px" height="100px" viewBox="0 0 100 100" style="enable-background:new 0 0 100 100;" xml:space="preserve">
<rect x="34.5" y="46.5" width="29" height="2"/>
<path d="M75.2,91.5H21.5v-2h52.7h0.2h0.5c1.4,0,2.5-1.3,2.5-2.7c0-1.4-1.4-2.3-2.7-2.3H26.9c-2.5,0-4.5-1.9-4.5-4.3
	c0-2.5,2.1-4.7,4.5-4.7h44.2c1.4,0,2.6-1.2,2.6-2.6c0-1.3-1.2-2.4-2.6-2.4H30.4c-2.5,0-4.5-2-4.5-4.5s2-4.5,4.5-4.5h37.3
	c1.4,0,2.5-1.1,2.5-2.5s-1.1-2.5-2.5-2.5H33.9c-2.6,0-4.5-2.6-4.5-5s1.9-5,4.5-5h30.2c1.2,0,2.5-0.5,2.5-2s-1.3-2-2.5-2H37.5
	c-2.5,0-4.5-2-4.5-4.5s2-4.5,4.5-4.5h30v2h-30c-1.4,0-2.5,1.1-2.5,2.5s1.1,2.5,2.5,2.5h26.7c2.7,0,4.5,1.6,4.5,4s-1.9,4-4.5,4H33.9
	c-1.4,0-2.5,1.6-2.5,3c0,1.4,1.1,3,2.5,3h33.7c2.5,0,4.5,2,4.5,4.5s-2,4.5-4.5,4.5H30.4c-1.4,0-2.5,1.1-2.5,2.5s1.1,2.5,2.5,2.5
	h40.7c2.6,0,4.6,2,4.6,4.4c0,2.5-2.1,4.6-4.6,4.6H26.9c-1.3,0-2.5,1.2-2.5,2.7c0,1.3,1.1,2.3,2.5,2.3h47.8c2.7,0,4.7,1.8,4.7,4.2
	c0,2.3-1.7,4.3-4,4.5L75.2,91.5z"/>
<polygon points="51.5,25.5 45.8,19.8 47.3,18.3 51.5,22.5 55.6,18.3 57.1,19.9 "/>
<rect x="50.5" y="10.5" width="2" height="13"/>
</svg>
