<?xml version="1.0" encoding="utf-8"?>
<!-- Generator: Adobe Illustrator 16.0.0, SVG Export Plug-In . SVG Version: 6.00 Build 0)  -->
<!DOCTYPE svg PUBLIC "-//W3C//DTD SVG 1.1//EN" "http://www.w3.org/Graphics/SVG/1.1/DTD/svg11.dtd">
<svg version="1.1" id="Layer_1" xmlns="http://www.w3.org/2000/svg" xmlns:xlink="http://www.w3.org/1999/xlink" x="0px" y="0px"
	 width="100px" height="100px" viewBox="0 0 100 100" style="enable-background:new 0 0 100 100;" xml:space="preserve">
<path d="M79,91l-4,0l0-2l4,0L79,91z M67,91l-4,0l0-2l4,0L67,91z M55,91l-3.2,0l0-2l3.2,0L55,91z M83.5,85.5h-2v-4h2V85.5z
	 M83.5,73.5h-2v-4h2V73.5z M83.5,61.5h-2v-4h2V61.5z M83.5,49.5h-2v-4h2V49.5z M83.5,37.5h-2v-4h2V37.5z M80.1,28.9l-4,0l0-2l4,0
	L80.1,28.9z M68.1,28.9l-4,0l0-2l4,0L68.1,28.9z M56.1,28.9l-4,0l0-2l4,0L56.1,28.9z"/>
<polygon points="46.5,58.5 46.5,88.2 17.5,71.5 17.5,11.7 46.5,28.5 46.5,47.5 48.5,47.5 48.5,27.3 15.5,8.2 15.5,72.6 48.5,91.7 
	48.5,58.5 "/>
<path d="M48.4,53.6c-4.1,0-8.2-0.7-11.8-2l0.7-1.9c4.6,1.7,10,2.2,15.4,1.6c5.6-0.6,10.8-2.5,15-5.3l1.1,1.7
	c-4.5,3-9.9,4.9-15.8,5.6C51.4,53.5,49.9,53.6,48.4,53.6z"/>
<polygon points="37.5,55 32.8,50.2 37.6,45.4 "/>
</svg>
