<?xml version="1.0" encoding="utf-8"?>
<!-- Generator: Adobe Illustrator 16.0.0, SVG Export Plug-In . SVG Version: 6.00 Build 0)  -->
<!DOCTYPE svg PUBLIC "-//W3C//DTD SVG 1.1//EN" "http://www.w3.org/Graphics/SVG/1.1/DTD/svg11.dtd">
<svg version="1.1" id="Layer_1" xmlns="http://www.w3.org/2000/svg" xmlns:xlink="http://www.w3.org/1999/xlink" x="0px" y="0px"
	 width="100px" height="100px" viewBox="0 0 100 100" style="enable-background:new 0 0 100 100;" xml:space="preserve">
<circle cx="74.9" cy="74.9" r="15"/>
<path d="M74.9,90.4c-8.5,0-15.5-7-15.5-15.5s7-15.5,15.5-15.5s15.5,7,15.5,15.5S83.5,90.4,74.9,90.4z M74.9,60.4
	c-8,0-14.5,6.5-14.5,14.5s6.5,14.5,14.5,14.5s14.5-6.5,14.5-14.5S82.9,60.4,74.9,60.4z"/>
<path d="M64.3,85.5"/>
<path d="M35.1,51.1c-8.8,0-16-7.2-16-16s7.2-16,16-16s16,7.2,16,16S43.9,51.1,35.1,51.1z M35.1,21.1c-7.7,0-14,6.3-14,14
	s6.3,14,14,14s14-6.3,14-14S42.8,21.1,35.1,21.1z"/>
<path d="M24.5,45.7"/>
<rect x="18.4" y="65.4" transform="matrix(0.7071 0.7071 -0.7071 0.7071 60.2464 -12.563)" width="53.9" height="2"/>
<rect x="36" y="43.1" transform="matrix(0.7071 0.7071 -0.7071 0.7071 50.26 -33.1816)" width="58.3" height="2"/>
<path d="M57.5,13.5v46h-46v-46H57.5 M59.5,11.5h-50v50h50V11.5L59.5,11.5z"/>
</svg>
