<?xml version="1.0" encoding="utf-8"?>
<!-- Generator: Adobe Illustrator 16.0.0, SVG Export Plug-In . SVG Version: 6.00 Build 0)  -->
<!DOCTYPE svg PUBLIC "-//W3C//DTD SVG 1.1//EN" "http://www.w3.org/Graphics/SVG/1.1/DTD/svg11.dtd">
<svg version="1.1" id="Layer_1" xmlns="http://www.w3.org/2000/svg" xmlns:xlink="http://www.w3.org/1999/xlink" x="0px" y="0px"
	 width="100px" height="100px" viewBox="0 0 100 100" style="enable-background:new 0 0 100 100;" xml:space="preserve">
<path d="M47.5,87.9C35.1,87.9,25,77.7,25,65.1c0-13,6.7-18.5,16.8-22.7l0.1,0c0.3-0.1,7.6-2.3,7.6-8.8V13.5h2v20.2
	c0,7.6-8.2,10.4-9,10.7c-9.6,4-15.5,8.8-15.5,20.8c0,11.5,9.2,20.8,20.5,20.8c11.4,0,20.4-9.4,20.4-20.4h2
	C69.9,78.5,60.1,87.9,47.5,87.9z"/>
<rect x="31.5" y="12.5" width="20" height="2"/>
<polygon points="72.7,19.4 68.6,15.3 64.5,19.3 63.1,17.8 68.6,12.3 74.1,17.9 "/>
<rect x="67.5" y="14.5" width="2" height="14"/>
</svg>
