<?xml version="1.0" encoding="utf-8"?>
<!-- Generator: Adobe Illustrator 16.0.0, SVG Export Plug-In . SVG Version: 6.00 Build 0)  -->
<!DOCTYPE svg PUBLIC "-//W3C//DTD SVG 1.1//EN" "http://www.w3.org/Graphics/SVG/1.1/DTD/svg11.dtd">
<svg version="1.1" id="Layer_1" xmlns="http://www.w3.org/2000/svg" xmlns:xlink="http://www.w3.org/1999/xlink" x="0px" y="0px"
	 width="100px" height="100px" viewBox="0 0 100 100" style="enable-background:new 0 0 100 100;" xml:space="preserve">
<polygon points="52.5,53.3 46.7,47.5 48.2,46 52.5,50.2 56.7,46 58.2,47.6 "/>
<rect x="51.5" y="37.5" width="2" height="14"/>
<rect x="44.5" y="55.5" width="14" height="2"/>
<path d="M58.3,62.5c-0.2,0-0.3,0-0.4,0H46.5c-2.1,0-6.1-1.3-6.1-5.9c0-3.6-4.7-4.9-5.4-5.1H9.5v-2l25.8,0c0.3,0.1,7.1,1.6,7.1,7.1
	c0,3.7,3.7,3.9,4.1,3.9l11.5,0c0,0,1.6,0.2,2.6-0.8c0.6-0.6,1-1.5,1-2.7c0-5.5,5.2-8.5,8.8-8.5h19.2v2H70.3c-2.3,0-6.8,2-6.8,6.5
	c0,1.8-0.5,3.2-1.6,4.2C60.7,62.4,59.1,62.5,58.3,62.5z"/>
</svg>
