<?xml version="1.0" encoding="utf-8"?>
<!-- Generator: Adobe Illustrator 16.0.0, SVG Export Plug-In . SVG Version: 6.00 Build 0)  -->
<!DOCTYPE svg PUBLIC "-//W3C//DTD SVG 1.1//EN" "http://www.w3.org/Graphics/SVG/1.1/DTD/svg11.dtd">
<svg version="1.1" id="Layer_1" xmlns="http://www.w3.org/2000/svg" xmlns:xlink="http://www.w3.org/1999/xlink" x="0px" y="0px"
	 width="100px" height="100px" viewBox="0 0 100 100" style="enable-background:new 0 0 100 100;" xml:space="preserve">
<path d="M37.5,91C21.8,91,9,78.2,9,62.5S21.8,34,37.5,34S66,46.8,66,62.5S53.2,91,37.5,91z M37.5,36C22.9,36,11,47.9,11,62.5
	S22.9,89,37.5,89S64,77.1,64,62.5S52.1,36,37.5,36z"/>
<path d="M62.8,65.5c-15.6,0-28.2-12.7-28.2-28.2S47.2,9,62.8,9S91,21.7,91,37.2S78.3,65.5,62.8,65.5z M62.8,11
	c-14.5,0-26.2,11.8-26.2,26.2c0,14.5,11.8,26.2,26.2,26.2C77.2,63.5,89,51.7,89,37.2C89,22.8,77.2,11,62.8,11z"/>
</svg>
