<?xml version="1.0" encoding="utf-8"?>
<!-- Generator: Adobe Illustrator 16.0.0, SVG Export Plug-In . SVG Version: 6.00 Build 0)  -->
<!DOCTYPE svg PUBLIC "-//W3C//DTD SVG 1.1//EN" "http://www.w3.org/Graphics/SVG/1.1/DTD/svg11.dtd">
<svg version="1.1" id="Layer_1" xmlns="http://www.w3.org/2000/svg" xmlns:xlink="http://www.w3.org/1999/xlink" x="0px" y="0px"
	 width="100px" height="100px" viewBox="0 0 100 100" style="enable-background:new 0 0 100 100;" xml:space="preserve">
<path d="M45.4,57.9c-7.6-3.5-23.4-1.8-23.6-1.8l-0.3-3c0.7-0.1,16.9-1.8,25.2,2L45.4,57.9z"/>
<path d="M59.2,64.9c-4.1,0-7.2-2.7-7.4-2.8l2-2.3c0,0,2.8,2.3,6,2c2-0.2,3.9-1.3,5.5-3.4c2.7-3.4,1.7-7.6,0.8-9.8
	c-2-4.9-6.5-9.2-10.2-9.7c-0.5-0.1-1-0.1-1.6-0.2c-7.1-1.1-16-2.4-21.3,12.3l-2.8-1C36.4,33,47.4,34.6,54.8,35.7
	c0.5,0.1,1.1,0.2,1.6,0.2c4.8,0.6,10.2,5.6,12.6,11.6c1.9,4.9,1.5,9.4-1.2,12.8c-2.2,2.7-4.8,4.3-7.6,4.5
	C59.7,64.9,59.4,64.9,59.2,64.9z"/>
<path d="M40.3,64.8c-0.6,0-1.3-0.1-1.9-0.2c-4.7-1-7.2-5.7-7.3-5.9l2.7-1.4c0,0,1.9,3.6,5.3,4.3c2.1,0.5,4.5-0.3,7-2.3
	c9.8-7.7,19.1-7,19.5-7l-0.2,3c-0.1,0-8.6-0.5-17.4,6.4C45.4,63.7,42.8,64.8,40.3,64.8z"/>
<rect x="70.6" y="52.5" transform="matrix(0.9989 4.729027e-02 -4.729027e-02 0.9989 2.6379 -3.4605)" width="7.8" height="3"/>
<path d="M55,43.8"/>
<polygon points="90.5,50.2 95,54.7 90.5,59.1 "/>
<rect x="85.5" y="53.5" width="5" height="2"/>
<polygon points="8.5,59.1 4,54.7 8.5,50.2 "/>
<rect x="8.5" y="53.5" width="5" height="2"/>
</svg>
