<?xml version="1.0" encoding="utf-8"?>
<!-- Generator: Adobe Illustrator 16.0.0, SVG Export Plug-In . SVG Version: 6.00 Build 0)  -->
<!DOCTYPE svg PUBLIC "-//W3C//DTD SVG 1.1//EN" "http://www.w3.org/Graphics/SVG/1.1/DTD/svg11.dtd">
<svg version="1.1" id="Layer_1" xmlns="http://www.w3.org/2000/svg" xmlns:xlink="http://www.w3.org/1999/xlink" x="0px" y="0px"
	 width="100px" height="100px" viewBox="0 0 100 100" style="enable-background:new 0 0 100 100;" xml:space="preserve">
<polygon points="83.5,94.5 37.7,94.5 15,72.5 60.3,72.5 "/>
<path d="M59.5,54.5l18.6,18H38.5l-18.5-18H59.5 M60.3,52.5H15l22.7,22H83L60.3,52.5L60.3,52.5z"/>
<polygon points="83.5,94.5 83,74.5 57,74.5 "/>
<polygon points="15,52.5 15,72.5 37.7,74.5 "/>
<path d="M87.5,28.5H39.3l-24.7-24h48.2L87.5,28.5z M40.1,26.5h42.5l-20.6-20H19.5L40.1,26.5z"/>
<rect x="50.5" y="5.6" transform="matrix(0.7071 0.7071 -0.7071 0.7071 25.8977 -31.5226)" width="1" height="19.8"/>
<rect x="55.5" y="10.4" transform="matrix(0.7071 0.7071 -0.7071 0.7071 27.3622 -35.0581)" width="1" height="10.3"/>
<polygon points="50.6,47.6 44.8,41.8 46.3,40.2 50.6,44.5 54.8,40.3 56.3,41.8 "/>
<rect x="49.5" y="32.5" width="2" height="14"/>
</svg>
