<?xml version="1.0" encoding="utf-8"?>
<!-- Generator: Adobe Illustrator 16.0.0, SVG Export Plug-In . SVG Version: 6.00 Build 0)  -->
<!DOCTYPE svg PUBLIC "-//W3C//DTD SVG 1.1//EN" "http://www.w3.org/Graphics/SVG/1.1/DTD/svg11.dtd">
<svg version="1.1" id="Layer_1" xmlns="http://www.w3.org/2000/svg" xmlns:xlink="http://www.w3.org/1999/xlink" x="0px" y="0px"
	 width="100px" height="100px" viewBox="0 0 100 100" style="enable-background:new 0 0 100 100;" xml:space="preserve">
<style type="text/css">
<![CDATA[
	.st0{fill:none;stroke:#000000;stroke-miterlimit:10;stroke-dasharray:4,8;}
	.st1{fill:#FFFFFF;}
]]>
</style>
<ellipse cx="50.2" cy="78.5" rx="28.3" ry="11.8"/>
<rect x="36.5" y="51.5" class="st1" width="28" height="28"/>
<path d="M63.5,52.5v26h-26v-26H63.5 M65.5,50.5h-30v30h30V50.5L65.5,50.5z"/>
<rect x="49.3" y="46.1" transform="matrix(0.7071 0.7071 -0.7071 0.7071 61.1218 -16.3872)" width="2" height="39"/>
<path class="st0" d="M78.2,76.7"/>
<path d="M19.3,75.1l-0.9-0.4l1.6-3.7l0.9,0.4L19.3,75.1z M24,64l-0.9-0.4l1.6-3.7l0.9,0.4L24,64z M28.7,53l-0.9-0.4l1.6-3.7l0.9,0.4
	L28.7,53z M33.4,41.9l-0.9-0.4l1.6-3.7l0.9,0.4L33.4,41.9z M38.1,30.9l-0.9-0.4l1.6-3.7l0.9,0.4L38.1,30.9z M42.8,19.8l-0.9-0.4
	l1.6-3.7l0.9,0.4L42.8,19.8z"/>
<path d="M80.7,75.1l-1.6-3.7l0.9-0.4l1.6,3.7L80.7,75.1z M76,64l-1.6-3.7l0.9-0.4l1.6,3.7L76,64z M71.3,53l-1.6-3.7l0.9-0.4l1.6,3.7
	L71.3,53z M66.6,41.9l-1.6-3.7l0.9-0.4l1.6,3.7L66.6,41.9z M61.9,30.9l-1.6-3.7l0.9-0.4l1.6,3.7L61.9,30.9z M57.2,19.8l-1.6-3.7
	l0.9-0.4l1.6,3.7L57.2,19.8z"/>
<path d="M44,12.2c0-3.3,2.7-6,6-6c3.3,0,6,2.7,6,6"/>
<path d="M50,16.8c-2.3,0-4.2-2.2-4.2-4.2h1c0,2,1.5,3.2,3.2,3.2c1.8,0,3.3-1.2,3.3-3.2h1C54.2,14.5,52.3,16.8,50,16.8z"/>
<rect x="35.5" y="79.5" width="28" height="14"/>
</svg>
