<?xml version="1.0" encoding="utf-8"?>
<!-- Generator: Adobe Illustrator 16.0.0, SVG Export Plug-In . SVG Version: 6.00 Build 0)  -->
<!DOCTYPE svg PUBLIC "-//W3C//DTD SVG 1.1//EN" "http://www.w3.org/Graphics/SVG/1.1/DTD/svg11.dtd">
<svg version="1.1" id="Layer_1" xmlns="http://www.w3.org/2000/svg" xmlns:xlink="http://www.w3.org/1999/xlink" x="0px" y="0px"
	 width="100px" height="100px" viewBox="0 0 100 100" style="enable-background:new 0 0 100 100;" xml:space="preserve">
<path d="M87.5,12.5v76h-76v-76H87.5 M89.5,10.5h-80v80h80V10.5L89.5,10.5z"/>
<path d="M64,19c0,0,0.1,0,0.4,0c0.2,0,0.6,0,1,0c0.4,0,0.9,0,1.5,0.1c0.3,0,0.6,0.1,0.9,0.1c0.2,0,0.2,0.1,0.3,0.2
	c0.1,0.1,0.2,0.2,0.2,0.3c1.5,1.5,3.4,3.4,5.4,5.4s3.9,3.9,5.4,5.4c0.1,0.1,0.2,0.2,0.3,0.3c0.1,0,0.2,0.1,0.2,0.3
	c0,0.3,0.1,0.6,0.1,0.9c0.1,0.5,0.1,1,0.1,1.4c0,0.4,0,0.8,0,1c0,0.2,0,0.4,0,0.4s-0.1,0-0.4,0c-0.2,0-0.6,0-1,0
	c-0.4,0-0.9,0-1.4-0.1c-0.3,0-0.6-0.1-0.9-0.1c-0.2,0-0.3-0.1-0.3-0.2c-0.1-0.1-0.2-0.2-0.3-0.3C74,32.5,72,30.5,70,28.6
	s-3.9-3.9-5.4-5.4c-0.1-0.1-0.2-0.2-0.3-0.2c-0.1-0.1-0.2-0.1-0.2-0.3c0-0.3-0.1-0.6-0.1-0.9c-0.1-0.5-0.1-1-0.1-1.5
	c0-0.4,0-0.8,0-1C64,19.1,64,19,64,19z"/>
<path d="M64,34.6c0,0,0-0.1,0-0.4c0-0.2,0-0.6,0-1c0-0.4,0-0.9,0.1-1.5c0-0.3,0.1-0.6,0.1-0.9c0-0.2,0.1-0.2,0.2-0.3
	c0.1-0.1,0.2-0.2,0.3-0.2C66.1,29,68.1,27,70,25s3.9-3.9,5.4-5.4c0.1-0.1,0.2-0.2,0.3-0.3c0-0.1,0.1-0.2,0.3-0.2
	c0.3,0,0.6-0.1,0.9-0.1c0.5-0.1,1-0.1,1.4-0.1c0.4,0,0.8,0,1,0c0.2,0,0.4,0,0.4,0s0,0.1,0,0.4c0,0.2,0,0.6,0,1c0,0.4,0,0.9-0.1,1.4
	c0,0.3-0.1,0.6-0.1,0.9c0,0.2-0.1,0.3-0.2,0.3C79.1,23,79,23.1,79,23.2c-1.5,1.5-3.4,3.4-5.4,5.4s-3.9,3.9-5.4,5.4
	C68.1,34,68,34.1,68,34.2c-0.1,0.1-0.1,0.2-0.3,0.2c-0.3,0-0.6,0.1-0.9,0.1c-0.5,0.1-1,0.1-1.5,0.1c-0.4,0-0.8,0-1,0
	C64.1,34.6,64,34.6,64,34.6z"/>
<path d="M24.5,79.8l-2,0c0-0.6,0-1.1,0-1.6l2,0.1C24.5,78.7,24.5,79.2,24.5,79.8z M25.9,70.6L24,70c0.5-1.4,1-2.6,1.7-3.8l1.7,1
	C26.8,68.2,26.3,69.4,25.9,70.6z M32.5,61.6L31.3,60c1.1-0.8,2.3-1.5,3.6-2.1l0.8,1.8C34.6,60.3,33.5,60.9,32.5,61.6z M43.2,57.7
	l-0.2-2c2.5-0.3,4.1-0.2,4.1-0.2l-0.1,2C46.8,57.5,45.4,57.4,43.2,57.7z M55.1,57.5l-0.1-2c1.3,0,2.6-0.2,3.8-0.4l0.4,2
	C57.9,57.3,56.5,57.5,55.1,57.5z M66.9,53.6l-1.3-1.5c0.9-0.8,1.8-1.7,2.5-2.7l1.7,1.1C68.9,51.7,67.9,52.7,66.9,53.6z M72.7,42.6
	l-2-0.3c0.2-1.3,0.2-2.4,0.2-3.1c0-0.4,0-0.7,0-0.7l2-0.1c0,0,0,0.3,0,0.9C73,40,72.9,41.2,72.7,42.6z"/>
</svg>
