<?xml version="1.0" encoding="utf-8"?>
<!-- Generator: Adobe Illustrator 16.0.0, SVG Export Plug-In . SVG Version: 6.00 Build 0)  -->
<!DOCTYPE svg PUBLIC "-//W3C//DTD SVG 1.1//EN" "http://www.w3.org/Graphics/SVG/1.1/DTD/svg11.dtd">
<svg version="1.1" id="Layer_1" xmlns="http://www.w3.org/2000/svg" xmlns:xlink="http://www.w3.org/1999/xlink" x="0px" y="0px"
	 width="100px" height="100px" viewBox="0 0 100 100" style="enable-background:new 0 0 100 100;" xml:space="preserve">
<style type="text/css">
<![CDATA[
	.st0{fill:#FFFFFF;}
	.st1{fill:none;stroke:#000000;stroke-width:2;stroke-miterlimit:10;}
]]>
</style>
<g>
	<path d="M61.5,11.5v50h-50v-50H61.5 M63.5,9.5h-54v54h54V9.5L63.5,9.5z"/>
	<path class="st1" d="M12.7,60.3"/>
	<path d="M60.2,60.5h-2c0-25-20.7-45.7-45.7-45.7v-2C38.5,12.8,60.2,34.5,60.2,60.5z"/>
	<circle cx="52.3" cy="20.3" r="3.5"/>
	<g>
		<rect x="37.5" y="37.5" class="st0" width="52" height="52"/>
		<path d="M88.5,38.5v50h-50v-50H88.5 M90.5,36.5h-54v54h54V36.5L90.5,36.5z"/>
		<path class="st1" d="M39.7,87.3"/>
		<path d="M87.2,87.5h-2c0-25-20.7-45.7-45.7-45.7v-2C65.5,39.8,87.2,61.5,87.2,87.5z"/>
		<circle cx="79.3" cy="47.3" r="3.5"/>
	</g>
</g>
</svg>
