<?xml version="1.0" encoding="utf-8"?>
<!-- Generator: Adobe Illustrator 16.0.0, SVG Export Plug-In . SVG Version: 6.00 Build 0)  -->
<!DOCTYPE svg PUBLIC "-//W3C//DTD SVG 1.1//EN" "http://www.w3.org/Graphics/SVG/1.1/DTD/svg11.dtd">
<svg version="1.1" id="Layer_1" xmlns="http://www.w3.org/2000/svg" xmlns:xlink="http://www.w3.org/1999/xlink" x="0px" y="0px"
	 width="100px" height="100px" viewBox="0 0 100 100" style="enable-background:new 0 0 100 100;" xml:space="preserve">
<g id="g4368" transform="matrix(0.88521973,0,0,0.88521973,4.8802,-5.9104314)">
	<g id="path3560">
		<path d="M5.3,92.5c-0.6,0-1.1-0.5-1.1-1.1c0-31.7,25.8-57.6,57.6-57.6c0.6,0,1.1,0.5,1.1,1.1c0,0.6-0.5,1.1-1.1,1.1
			c-30.5,0-55.3,24.8-55.3,55.3C6.4,92,5.9,92.5,5.3,92.5z"/>
	</g>
	<g id="path3562">
		<path d="M96.6,70.9c-0.6,0-1.1-0.5-1.1-1.1c0-18.6-15.1-33.7-33.7-33.7c-0.6,0-1.1-0.5-1.1-1.1c0-0.6,0.5-1.1,1.1-1.1
			c19.9,0,36,16.2,36,36C97.8,70.4,97.2,70.9,96.6,70.9z"/>
	</g>
	<g id="path3564">
		<path d="M75.1,92.5c-0.6,0-1.1-0.5-1.1-1.1s0.5-1.1,1.1-1.1c11.3,0,20.4-9.2,20.4-20.4c0-0.6,0.5-1.1,1.1-1.1s1.1,0.5,1.1,1.1
			C97.8,82.3,87.6,92.5,75.1,92.5z"/>
	</g>
	<g id="path3566">
		<path d="M75.1,92.5c-8,0-14.4-6.5-14.4-14.5c0-0.6,0.5-1.1,1.1-1.1c0.6,0,1.1,0.5,1.1,1.1c0,6.7,5.5,12.2,12.2,12.2
			c0.6,0,1.1,0.5,1.1,1.1S75.7,92.5,75.1,92.5z"/>
	</g>
	<g id="path3568">
		<path d="M61.7,79.2c-0.6,0-1.1-0.5-1.1-1.1c0-5.2,4.2-9.4,9.4-9.4c0.6,0,1.1,0.5,1.1,1.1c0,0.6-0.5,1.1-1.1,1.1
			c-3.9,0-7.1,3.2-7.1,7.1C62.9,78.7,62.4,79.2,61.7,79.2z"/>
	</g>
	<g id="path3570">
		<path d="M75.1,76c-0.6,0-1.1-0.5-1.1-1.1c0-2.2-1.8-4-4-4c-0.6,0-1.1-0.5-1.1-1.1c0-0.6,0.5-1.1,1.1-1.1c3.4,0,6.2,2.8,6.2,6.2
			C76.2,75.5,75.7,76,75.1,76z"/>
	</g>
	<g id="ellipse3572">
		<path d="M5.4,92.5c-0.6,0-1.1-0.5-1.1-1.1s0.5-1.1,1.1-1.1h0c0.6,0,1.1,0.5,1.1,1.1S6,92.5,5.4,92.5z"/>
	</g>
	<g id="path3574">
		<path d="M71.9,79.2C71.9,79.2,71.9,79.2,71.9,79.2c-0.6,0-1.1-0.5-1.1-1.1c0-0.6,0.5-1.1,1.1-1.1c0,0,0,0,0,0c0,0,0,0,0,0
			c0.5,0,1-0.2,1.4-0.6c0.4-0.4,0.6-0.9,0.6-1.4c0-0.6,0.5-1.1,1.1-1.1c0.6,0,1.1,0.5,1.1,1.1c0,1.1-0.4,2.2-1.3,3
			C74.1,78.7,73.1,79.2,71.9,79.2z"/>
	</g>
	<g id="path3576">
		<path d="M71.9,79.2c-1.7,0-3.1-1.4-3.1-3.1c0-0.6,0.5-1.1,1.1-1.1s1.1,0.5,1.1,1.1c0,0.4,0.4,0.8,0.8,0.8c0.6,0,1.1,0.5,1.1,1.1
			C73.1,78.7,72.5,79.2,71.9,79.2z"/>
	</g>
	<g id="path3578">
		<path d="M70,77.2c-0.6,0-1.1-0.5-1.1-1.1c0-1.3,1-2.3,2.3-2.3c0.6,0,1.1,0.5,1.1,1.1S71.8,76,71.2,76c0,0-0.1,0-0.1,0.1
			C71.1,76.7,70.6,77.2,70,77.2z"/>
	</g>
	<g id="path3580">
		<path d="M71.9,76.8c-0.5,0-0.9-0.3-1.1-0.8c-0.5-0.1-0.8-0.6-0.8-1.1c0-0.6,0.5-1.1,1.1-1.1c1,0,1.9,0.8,1.9,1.9
			C73.1,76.3,72.5,76.8,71.9,76.8z"/>
	</g>
	<g id="path3582">
		<path d="M71.5,77.2c-0.6,0-1.1-0.5-1.1-1.1c0-0.4,0.2-0.8,0.6-1c0.2-0.4,0.6-0.6,1-0.6c0.6,0,1.1,0.5,1.1,1.1
			C73.1,76.5,72.3,77.2,71.5,77.2z"/>
	</g>
	<g id="path3584">
		<path d="M71.5,77.2c-0.8,0-1.4-0.6-1.4-1.4c0-0.6,0.5-1.1,1.1-1.1c0.4,0,0.7,0.2,0.9,0.5c0.3,0.2,0.5,0.5,0.5,0.9
			C72.6,76.7,72.1,77.2,71.5,77.2z"/>
	</g>
	<g id="path3586">
		<path d="M71.2,77c-0.6,0-1.1-0.5-1.1-1.1c0-0.7,0.6-1.3,1.3-1.3c0.6,0,1.1,0.5,1.1,1.1c0,0.4-0.2,0.7-0.4,0.9
			C71.9,76.8,71.5,77,71.2,77z"/>
	</g>
</g>
</svg>
