<?xml version="1.0" encoding="utf-8"?>
<!-- Generator: Adobe Illustrator 16.0.0, SVG Export Plug-In . SVG Version: 6.00 Build 0)  -->
<!DOCTYPE svg PUBLIC "-//W3C//DTD SVG 1.1//EN" "http://www.w3.org/Graphics/SVG/1.1/DTD/svg11.dtd">
<svg version="1.1" id="Layer_1" xmlns="http://www.w3.org/2000/svg" xmlns:xlink="http://www.w3.org/1999/xlink" x="0px" y="0px"
	 width="100px" height="100px" viewBox="0 0 100 100" style="enable-background:new 0 0 100 100;" xml:space="preserve">
<style type="text/css">
<![CDATA[
	.st0{fill:#FFFFFF;}
]]>
</style>
<path d="M20.2,93.8c-2,0-3.7-1.5-4-3.4L5.7,17.1c-0.2-1.1,0.1-2.1,0.8-3c0.6-0.9,1.6-1.4,2.6-1.6l43.5-6.3c2.2-0.3,4.2,1.2,4.5,3.4
	l10.6,73.2c0.2,1.1-0.1,2.1-0.8,3c-0.6,0.9-1.6,1.4-2.6,1.6l-43.5,6.3C20.6,93.7,20.4,93.8,20.2,93.8z M53.2,8.2c-0.1,0-0.2,0-0.3,0
	L9.4,14.5c-0.5,0.1-1,0.4-1.3,0.8c-0.3,0.4-0.5,1-0.4,1.5L18.3,90c0.2,1.1,1.2,1.9,2.3,1.7l43.5-6.3c0.5-0.1,1-0.4,1.3-0.8
	c0.3-0.4,0.5-1,0.4-1.5L55.2,10C55.1,9,54.2,8.2,53.2,8.2z"/>
<path d="M42.7,57.8c3.3-0.5,5.6-3.6,5.2-6.9c-0.2-1.2-0.7-2.3-1.5-3.2l0,0C43.3,43.7,35,38,35,38c-5.9,7.1-8.2,12.4-8.2,12.4l0,0
	c-0.5,1.1-0.7,2.3-0.5,3.5c0.5,3.3,3.6,5.7,6.9,5.2c1.6-0.2,3-1.1,3.9-2.3c-0.8,2.9-5.2,6-5.2,6l6.2-0.9l0.6-0.1l0.6-0.1l5.7-0.8
	c0,0-4.9-1.3-6.2-3.6L38.8,57C39.9,57.7,41.3,58,42.7,57.8z"/>
<path d="M20.8,26.3c1.3-0.2,2.3-1.4,2.1-2.7c-0.1-0.5-0.2-0.9-0.5-1.3l0,0c-1.2-1.5-4.4-3.7-4.4-3.7c-2.3,2.7-3.1,4.8-3.1,4.8l0,0
	c-0.2,0.4-0.3,0.9-0.2,1.4c0.2,1.3,1.4,2.2,2.7,2c0.6-0.1,1.2-0.2,1.5-0.7c-0.3,1.1-2,2.5-2,2.5l2.4-0.3l0.2,0l0.2,0l2.2-0.3
	c0,0-1.7-0.9-2.9-1.7l0-0.1C20.2,26.2,20.3,26.4,20.8,26.3z"/>
<path class="st0" d="M85.1,89.1c-0.2,1.6-1.7,2.8-3.3,2.6L38,86.9c-1.6-0.2-2.8-1.7-2.6-3.3L43.6,10c0.2-1.6,1.7-2.8,3.3-2.6
	l43.7,4.9c1.6,0.2,2.8,1.7,2.6,3.3L85.1,89.1z"/>
<path d="M82.1,92.8c-0.1,0-0.3,0-0.4,0l-43.7-4.9c-2.2-0.2-3.8-2.2-3.5-4.4l8.2-73.5c0.2-2.2,2.2-3.8,4.4-3.5l43.7,4.9
	c2.2,0.2,3.8,2.2,3.5,4.4l-8.2,73.5C85.8,91.3,84.1,92.8,82.1,92.8z M46.6,8.4c-1,0-1.9,0.8-2,1.8l-8.2,73.5
	c-0.1,1.1,0.7,2.1,1.8,2.2l43.7,4.9c1.1,0.1,2.1-0.7,2.2-1.8l8.2-73.5c0.1-1.1-0.7-2.1-1.8-2.2L46.8,8.4C46.7,8.4,46.7,8.4,46.6,8.4
	z"/>
<path d="M68.1,58.6c3.4,0.4,6.4-2,6.7-5.4c0.1-1.2-0.1-2.5-0.7-3.5l0,0c-1.9-4.6-8.5-12.1-8.5-12.1c-7.5,5.4-11,10-11,10l0,0
	c-0.8,0.9-1.3,2-1.4,3.3c-0.4,3.4,2,6.4,5.4,6.7c1.6,0.2,3.2-0.3,4.4-1.2c-1.5,2.6-6.6,4.4-6.6,4.4l6.2,0.7l0.6,0.1l0.6,0.1l5.7,0.6
	c0,0-4.4-2.5-5.1-5l0-0.4C65.4,57.8,66.7,58.5,68.1,58.6z"/>
<path d="M54.9,22.7c1.3,0.1,2.6-0.8,2.7-2.1c0.1-0.5,0-0.9-0.2-1.3l0,0c-0.7-1.8-3.3-4.7-3.3-4.7c-2.9,2.1-4.3,3.9-4.3,3.9l0,0
	c-0.3,0.3-0.5,0.8-0.5,1.3c-0.1,1.3,0.8,2.5,2.1,2.6c0.6,0.1,1.2,0.1,1.7-0.3c-0.6,1-2.6,1.9-2.6,1.9l2.4,0.3l0.2,0l0.2,0l2.2,0.2
	c0,0-1.4-1.3-2.3-2.4l0-0.1C54.3,22.4,54.4,22.6,54.9,22.7z"/>
</svg>
