<?xml version="1.0" encoding="utf-8"?>
<!-- Generator: Adobe Illustrator 16.0.0, SVG Export Plug-In . SVG Version: 6.00 Build 0)  -->
<!DOCTYPE svg PUBLIC "-//W3C//DTD SVG 1.1//EN" "http://www.w3.org/Graphics/SVG/1.1/DTD/svg11.dtd">
<svg version="1.1" id="Layer_1" xmlns="http://www.w3.org/2000/svg" xmlns:xlink="http://www.w3.org/1999/xlink" x="0px" y="0px"
	 width="100px" height="100px" viewBox="0 0 100 100" style="enable-background:new 0 0 100 100;" xml:space="preserve">
<path d="M82.5,7.5v36H45h-2.5V45v38.5h-36v-76H82.5 M84.5,5.5h-80v80h40v-40h40V5.5L84.5,5.5z"/>
<path d="M92.5,57.5v36h-36v-36H92.5 M94.5,55.5h-40v40h40V55.5L94.5,55.5z"/>
<polygon points="83.5,83.5 76.5,83.5 76.5,81.5 81.5,81.5 81.5,76.5 83.5,76.5 "/>
<rect x="65" y="74" transform="matrix(0.7071 0.7071 -0.7071 0.7071 74.9963 -31.0434)" width="20" height="2"/>
</svg>
