<?xml version="1.0" encoding="utf-8"?>
<!-- Generator: Adobe Illustrator 16.0.0, SVG Export Plug-In . SVG Version: 6.00 Build 0)  -->
<!DOCTYPE svg PUBLIC "-//W3C//DTD SVG 1.1//EN" "http://www.w3.org/Graphics/SVG/1.1/DTD/svg11.dtd">
<svg version="1.1" id="Layer_1" xmlns="http://www.w3.org/2000/svg" xmlns:xlink="http://www.w3.org/1999/xlink" x="0px" y="0px"
	 width="100px" height="100px" viewBox="0 0 100 100" style="enable-background:new 0 0 100 100;" xml:space="preserve">
<style type="text/css">
<![CDATA[
	.st0{fill:#FFFFFF;}
]]>
</style>
<rect x="38.5" y="10.5" class="st0" width="50" height="80"/>
<path d="M89.5,90.5h-51v-81h51V90.5z M39.5,89.5h49v-79h-49V89.5z"/>
<path d="M49.7,18.3c17.2,0,31.2,14,31.2,31.2c0,17.2-14,31.2-31.2,31.2c-17.2,0-31.2-14-31.2-31.2C18.5,32.3,32.5,18.3,49.7,18.3
	 M49.7,17.3c-17.8,0-32.2,14.4-32.2,32.2c0,17.8,14.4,32.2,32.2,32.2c17.8,0,32.2-14.4,32.2-32.2C81.9,31.7,67.5,17.3,49.7,17.3
	L49.7,17.3z"/>
<polygon class="st0" points="47.4,87.8 51.1,51 48.6,48.8 51.2,10.5 10.8,10.5 11.2,88.1 "/>
<path d="M10.8,88.4L10.2,9.5h41.5l-2.7,38.9l2.6,2.4l0,0.2l-3.7,37.2L10.8,88.4z M11.3,10.5l0.5,76.9L47,87.3l3.6-36.1l-2.5-2.4
	l2.6-38.3H11.3z"/>
<path d="M49.6,17.3l-2.1,30l0,0.4l0.3,0.3l2.2,2.3l-2.9,29.2C31,78.3,18.5,64.8,18.5,48.5C18.5,31.3,32.5,17.3,49.6,17.3 M49.7,16.3
	c-17.8,0-32.2,14.4-32.2,32.2C17.5,65.7,31,79.8,48,80.7L51.1,50l-2.5-2.6l2.1-31C50.4,16.3,50,16.3,49.7,16.3L49.7,16.3z"/>
</svg>
