<?xml version="1.0" encoding="utf-8"?>
<!-- Generator: Adobe Illustrator 16.0.0, SVG Export Plug-In . SVG Version: 6.00 Build 0)  -->
<!DOCTYPE svg PUBLIC "-//W3C//DTD SVG 1.1//EN" "http://www.w3.org/Graphics/SVG/1.1/DTD/svg11.dtd">
<svg version="1.1" id="Layer_1" xmlns="http://www.w3.org/2000/svg" xmlns:xlink="http://www.w3.org/1999/xlink" x="0px" y="0px"
	 width="100px" height="100px" viewBox="0 0 100 100" style="enable-background:new 0 0 100 100;" xml:space="preserve">
<style type="text/css">
<![CDATA[
	.st0{fill:#231F20;}
]]>
</style>
<path class="st0" d="M42.5,20.2C62.1,20.2,78,36.1,78,55.7c0,19.6-15.9,35.5-35.5,35.5C22.9,91.2,7,75.3,7,55.7
	C7,36.1,22.9,20.2,42.5,20.2 M42.5,18.2C21.8,18.2,5,35,5,55.7c0,20.7,16.8,37.5,37.5,37.5S80,76.4,80,55.7
	C80,35,63.2,18.2,42.5,18.2L42.5,18.2z"/>
<path class="st0" d="M91,45h-2C89,23.5,71.5,6,50,6V4C72.6,4,91,22.4,91,45z"/>
<polygon class="st0" points="90,47.4 84.7,42.1 86.1,40.7 90,44.6 93.8,40.7 95.3,42.2 "/>
<rect x="5" y="93" class="st0" width="80" height="2"/>
</svg>
