<?xml version="1.0" encoding="utf-8"?>
<!-- Generator: Adobe Illustrator 16.0.0, SVG Export Plug-In . SVG Version: 6.00 Build 0)  -->
<!DOCTYPE svg PUBLIC "-//W3C//DTD SVG 1.1//EN" "http://www.w3.org/Graphics/SVG/1.1/DTD/svg11.dtd">
<svg version="1.1" id="Layer_1" xmlns="http://www.w3.org/2000/svg" xmlns:xlink="http://www.w3.org/1999/xlink" x="0px" y="0px"
	 width="100px" height="100px" viewBox="0 0 100 100" style="enable-background:new 0 0 100 100;" xml:space="preserve">
<path d="M71.5,28.5v44h-43v-44H71.5 M73.5,26.5h-47v48h47V26.5L73.5,26.5z"/>
<rect x="48.8" y="19.5" transform="matrix(0.7071 0.7071 -0.7071 0.7071 50.3673 -20.4196)" width="2" height="62.2"/>
<path d="M73.5,90.6l-0.6-1.9c4.8-1.5,9.4-4.5,13.4-8.5c3.9-3.9,6.8-8.4,8.3-13.1l1.9,0.6c-1.7,5-4.7,9.8-8.8,13.9
	C83.5,85.9,78.6,88.9,73.5,90.6z"/>
<polygon points="99.8,69.1 96.2,63.4 90.5,67 "/>
<path d="M5.4,32.8l-1.9-0.6c1.7-5,4.7-9.8,8.8-13.9c4.2-4.2,9.1-7.3,14.2-8.9l0.6,1.9c-4.8,1.5-9.4,4.5-13.4,8.5
	C9.8,23.6,7,28.2,5.4,32.8z"/>
<polygon points="0.2,30.9 3.8,36.6 9.5,33 "/>
</svg>
