<?xml version="1.0" encoding="utf-8"?>
<!-- Generator: Adobe Illustrator 16.0.0, SVG Export Plug-In . SVG Version: 6.00 Build 0)  -->
<!DOCTYPE svg PUBLIC "-//W3C//DTD SVG 1.1//EN" "http://www.w3.org/Graphics/SVG/1.1/DTD/svg11.dtd">
<svg version="1.1" id="Layer_1" xmlns="http://www.w3.org/2000/svg" xmlns:xlink="http://www.w3.org/1999/xlink" x="0px" y="0px"
	 width="100px" height="100px" viewBox="0 0 100 100" style="enable-background:new 0 0 100 100;" xml:space="preserve">
<path d="M87.5,12.5v76h-76v-76H87.5 M89.5,10.5h-80v80h80V10.5L89.5,10.5z"/>
<circle cx="65.2" cy="26.5" r="5"/>
<polygon points="53,46.5 50.9,39.3 52.8,38.7 54.3,44 59.6,42.5 60.1,44.4 "/>
<rect x="56" y="32" transform="matrix(0.8772 0.4801 -0.4801 0.8772 25.7253 -22.5898)" width="2" height="14"/>
<circle cx="70.2" cy="50.3" r="5"/>
<polygon points="81.4,70.9 74.1,69.1 74.5,67.2 79.9,68.5 81.2,63.2 83.1,63.7 "/>
<rect x="69.9" y="62.7" transform="matrix(0.5217 0.8531 -0.8531 0.5217 91.0973 -35.1711)" width="14" height="2"/>
<circle cx="36.3" cy="41" r="5"/>
<polygon points="23.3,30.2 21.3,30 21.8,22.6 29.3,23.1 29.2,25.1 23.6,24.7 "/>
<rect x="20.4" y="28" transform="matrix(0.6593 0.7519 -0.7519 0.6593 31.123 -10.7534)" width="14" height="2"/>
<circle cx="34.8" cy="67.8" r="5"/>
<polygon points="49.9,79.7 49,77.9 54,75.4 51.5,70.6 53.3,69.7 56.6,76.3 "/>
<rect x="41.6" y="72.7" transform="matrix(0.9485 0.3168 -0.3168 0.9485 25.8398 -11.5893)" width="14" height="2"/>
</svg>
