<?xml version="1.0" encoding="utf-8"?>
<!-- Generator: Adobe Illustrator 16.0.0, SVG Export Plug-In . SVG Version: 6.00 Build 0)  -->
<!DOCTYPE svg PUBLIC "-//W3C//DTD SVG 1.1//EN" "http://www.w3.org/Graphics/SVG/1.1/DTD/svg11.dtd">
<svg version="1.1" id="Layer_1" xmlns="http://www.w3.org/2000/svg" xmlns:xlink="http://www.w3.org/1999/xlink" x="0px" y="0px"
	 width="100px" height="100px" viewBox="0 0 100 100" style="enable-background:new 0 0 100 100;" xml:space="preserve">
<g>
	<g>
		<path d="M69.5,90.5h-2l0-28.2c0.1-13.5,7.6-15.5,12.1-15.5c6.3,0,11.3,4.8,11.3,11c0,3.4-3.2,7.4-7.4,7.4c-4.2,0-8.1-3.1-8.1-6.6
			v-1c0-1.8,1.6-3,4-3c2,0,4,1.9,4,3.9h-2c0-1-1.1-1.9-2-1.9c-0.7,0-2,0.2-2,1v1c0,2.3,3,4.6,6.1,4.6c2.9,0,5.4-3,5.4-5.4
			c0-5.6-4.7-9-9.3-9c-6.7,0-10.1,4.6-10.1,13.7V90.5z"/>
	</g>
	<g>
		<path d="M69.5,91.5h-61v-61h61V91.5z M10.5,89.5h57v-57h-57V89.5z"/>
	</g>
	<g>
		<polygon points="80.5,31.1 75.1,25.7 76.6,24.3 80.5,28.2 84.3,24.4 85.7,25.8 		"/>
	</g>
	<g>
		<rect x="79.5" y="10.5" width="2" height="19"/>
	</g>
</g>
</svg>
