<?xml version="1.0" encoding="utf-8"?>
<!-- Generator: Adobe Illustrator 16.0.0, SVG Export Plug-In . SVG Version: 6.00 Build 0)  -->
<!DOCTYPE svg PUBLIC "-//W3C//DTD SVG 1.1//EN" "http://www.w3.org/Graphics/SVG/1.1/DTD/svg11.dtd">
<svg version="1.1" id="Layer_1" xmlns="http://www.w3.org/2000/svg" xmlns:xlink="http://www.w3.org/1999/xlink" x="0px" y="0px"
	 width="100px" height="100px" viewBox="0 0 100 100" style="enable-background:new 0 0 100 100;" xml:space="preserve">
<path d="M89.5,10.5h-4v2h4V10.5L89.5,10.5z M77.5,10.5h-4v2h4V10.5L77.5,10.5z M65.5,10.5h-4v2h4V10.5L65.5,10.5z M53.5,10.5h-4v2h4
	V10.5L53.5,10.5z M41.5,10.5h-4v2h4V10.5L41.5,10.5z M29.5,10.5h-4v2h4V10.5L29.5,10.5z M17.5,10.5h-4v2h4V10.5L17.5,10.5z
	 M11.5,14.5h-2v4h2V14.5L11.5,14.5z M11.5,26.5h-2v4h2V26.5L11.5,26.5z M11.5,38.5h-2v4h2V38.5L11.5,38.5z M11.5,50.5h-2v4h2V50.5
	L11.5,50.5z M11.5,62.5h-2v4h2V62.5L11.5,62.5z M11.5,74.5h-2v4h2V74.5L11.5,74.5z M11.5,86.5h-2v4h2V86.5L11.5,86.5z M21.5,88.5h-4
	v2h4V88.5L21.5,88.5z M33.5,88.5h-4v2h4V88.5L33.5,88.5z M45.5,88.5h-4v2h4V88.5L45.5,88.5z M57.5,88.5h-4v2h4V88.5L57.5,88.5z
	 M69.5,88.5h-4v2h4V88.5L69.5,88.5z M81.5,88.5h-4v2h4V88.5L81.5,88.5z M89.5,86.5h-2v4h2V86.5L89.5,86.5z M89.5,74.5h-2v4h2V74.5
	L89.5,74.5z M89.5,62.5h-2v4h2V62.5L89.5,62.5z M89.5,50.5h-2v4h2V50.5L89.5,50.5z M89.5,38.5h-2v4h2V38.5L89.5,38.5z M89.5,26.5h-2
	v4h2V26.5L89.5,26.5z M89.5,14.5h-2v4h2V14.5L89.5,14.5z"/>
<path d="M87.5,65.5v23h-76v-23H87.5 M89.5,63.5h-80v27h80V63.5L89.5,63.5z"/>
<polygon points="51,58.4 45.5,53.4 47,52 51,55.7 55,52.1 56.5,53.4 "/>
<rect x="49.5" y="36.5" width="3" height="20"/>
<rect x="45.5" y="59.5" width="10" height="2"/>
</svg>
