<?xml version="1.0" encoding="utf-8"?>
<!-- Generator: Adobe Illustrator 16.0.0, SVG Export Plug-In . SVG Version: 6.00 Build 0)  -->
<!DOCTYPE svg PUBLIC "-//W3C//DTD SVG 1.1//EN" "http://www.w3.org/Graphics/SVG/1.1/DTD/svg11.dtd">
<svg version="1.1" id="Layer_1" xmlns="http://www.w3.org/2000/svg" xmlns:xlink="http://www.w3.org/1999/xlink" x="0px" y="0px"
	 width="100px" height="100px" viewBox="0 0 100 100" style="enable-background:new 0 0 100 100;" xml:space="preserve">
<path d="M87.5,12.5v76h-76v-76H87.5 M89.5,10.5h-80v80h80V10.5L89.5,10.5z"/>
<path d="M65.3,48.2c0,1.4-3.3,2.3-3.7,3.6c-0.4,1.3,1.7,4,0.9,5.1c-0.8,1.1-4-0.1-5.2,0.7c-1.1,0.8-0.9,4.2-2.3,4.7
	c-1.3,0.4-3.2-2.5-4.6-2.5s-3.3,2.9-4.6,2.5c-1.3-0.4-1.2-3.9-2.3-4.7c-1.1-0.8-4.3,0.4-5.2-0.7c-0.8-1.1,1.3-3.8,0.9-5.1
	c-0.4-1.3-3.7-2.2-3.7-3.6c0-1.4,3.3-2.3,3.7-3.6c0.4-1.3-1.7-4-0.9-5.1c0.8-1.1,4,0.1,5.2-0.7c1.1-0.8,0.9-4.2,2.3-4.7
	c1.3-0.4,3.2,2.5,4.6,2.5s3.3-2.9,4.6-2.5c1.3,0.4,1.2,3.9,2.3,4.7c1.1,0.8,4.3-0.4,5.2,0.7c0.8,1.1-1.3,3.8-0.9,5.1
	C62,45.9,65.3,46.8,65.3,48.2z"/>
<polygon points="45.9,23.5 50.7,18.7 55.5,23.5 "/>
<rect x="49.5" y="20.5" width="2" height="8"/>
<polygon points="55.5,74.5 50.6,79.3 45.9,74.5 "/>
<rect x="49.5" y="69.5" width="2" height="8"/>
</svg>
