<?xml version="1.0" encoding="utf-8"?>
<!-- Generator: Adobe Illustrator 16.0.0, SVG Export Plug-In . SVG Version: 6.00 Build 0)  -->
<!DOCTYPE svg PUBLIC "-//W3C//DTD SVG 1.1//EN" "http://www.w3.org/Graphics/SVG/1.1/DTD/svg11.dtd">
<svg version="1.1" id="Layer_1" xmlns="http://www.w3.org/2000/svg" xmlns:xlink="http://www.w3.org/1999/xlink" x="0px" y="0px"
	 width="100px" height="100px" viewBox="0 0 100 100" style="enable-background:new 0 0 100 100;" xml:space="preserve">
<polygon points="15.6,61.3 5.1,24.8 51.7,11.3 51,8.7 53.9,7.9 55.3,13.4 8.8,26.9 17.7,57.6 62.8,44.6 63.7,47.4 "/>
<polygon points="11.7,28 20.1,54.3 61.1,42.7 "/>
<path d="M93.7,84.7c0,1.6-3.1,2.5-7,3.7c-2.2,0.7-4.5,2.4-7.5,2.8c-2.4,0.4-5.2-0.6-8-0.4c-2.5,0.2-5.2,1.4-7.9,1.4
	c-2.8,0-5.4-1.3-7.9-1.4c-2.8-0.2-5.6,0.7-8,0.4c-3-0.4-5.4-2.2-7.5-2.8c-3.9-1.2-7-2.1-7-3.7s3.1-2.5,7-3.7
	c2.1-0.7,4.5-2.4,7.5-2.8c2.4-0.4,5.2,0.6,8,0.4c2.5-0.2,5.2-1.4,7.9-1.4c2.8,0,5.4,1.3,7.9,1.4c2.8,0.2,5.6-0.7,8-0.4
	c3,0.4,5.4,2.2,7.5,2.8C90.6,82.1,93.7,83.1,93.7,84.7z"/>
<path d="M66.8,61l-2.9-4.9l-3.6,5h0c-0.4,0.6-0.7,1.4-0.7,2.3c0,2.2,1.8,4,4,4s4-1.8,4-4C67.6,62.5,67.3,61.7,66.8,61z"/>
</svg>
