<?xml version="1.0" encoding="utf-8"?>
<!-- Generator: Adobe Illustrator 16.0.0, SVG Export Plug-In . SVG Version: 6.00 Build 0)  -->
<!DOCTYPE svg PUBLIC "-//W3C//DTD SVG 1.1//EN" "http://www.w3.org/Graphics/SVG/1.1/DTD/svg11.dtd">
<svg version="1.1" id="Layer_1" xmlns="http://www.w3.org/2000/svg" xmlns:xlink="http://www.w3.org/1999/xlink" x="0px" y="0px"
	 width="100px" height="100px" viewBox="0 0 100 100" style="enable-background:new 0 0 100 100;" xml:space="preserve">
<path d="M87.5,10.5v76h-76v-76H87.5 M89.5,8.5h-80v80h80V8.5L89.5,8.5z"/>
<path d="M50.5,99.5h-2v-4h2V99.5z M50.5,87.5h-2v-4h2V87.5z M50.5,75.5h-2v-4h2V75.5z M50.5,63.5h-2v-4h2V63.5z M50.5,51.5h-2v-4h2
	V51.5z M50.5,39.5h-2v-4h2V39.5z M50.5,27.5h-2v-4h2V27.5z M50.5,15.5h-2v-4h2V15.5z M50.5,3.5h-2v-4h2V3.5z"/>
</svg>
