<?xml version="1.0" encoding="utf-8"?>
<!-- Generator: Adobe Illustrator 16.0.0, SVG Export Plug-In . SVG Version: 6.00 Build 0)  -->
<!DOCTYPE svg PUBLIC "-//W3C//DTD SVG 1.1//EN" "http://www.w3.org/Graphics/SVG/1.1/DTD/svg11.dtd">
<svg version="1.1" id="Layer_1" xmlns="http://www.w3.org/2000/svg" xmlns:xlink="http://www.w3.org/1999/xlink" x="0px" y="0px"
	 width="100px" height="100px" viewBox="0 0 100 100" style="enable-background:new 0 0 100 100;" xml:space="preserve">
<g>
	<path d="M10,33.5"/>
</g>
<g>
	<path d="M90,66.5"/>
</g>
<g>
	<path d="M40.5,50c0,1.4,0.3,2.6,0.8,3.8c1.5,3.6,5.1,6.2,9.2,6.2c4.1,0,7.6-2.5,9.2-6c0.5-1.2,0.8-2.6,0.8-4c0-1.3-0.3-2.6-0.8-3.8
		c-1.5-3.6-5.1-6.2-9.2-6.2c-4.1,0-7.7,2.5-9.2,6.1C40.8,47.3,40.5,48.6,40.5,50z"/>
</g>
<g>
	<path d="M32.9,42.9L31,42.2c3.2-8,10.9-13.2,19.5-13.2c8.5,0,16.2,5.1,19.4,13l-1.8,0.8C65.1,35.6,58.2,31,50.5,31
		C42.7,31,35.8,35.7,32.9,42.9z"/>
</g>
<g>
	<path d="M70.5,50"/>
</g>
<g>
	<path d="M23.6,39.1l-1.9-0.8C26.5,26.6,37.8,19,50.5,19c12.6,0,23.9,7.5,28.7,19.2l-1.8,0.8C72.8,28,62.3,21,50.5,21
		C38.6,21,28.1,28.1,23.6,39.1z"/>
</g>
<g>
	<path d="M80.5,50"/>
</g>
<g>
	<path d="M14.3,35.4l-1.9-0.8C18.8,19.1,33.7,9,50.5,9C67.2,9,82,19,88.4,34.4l-1.8,0.8C80.5,20.5,66.4,11,50.5,11
		C34.5,11,20.3,20.6,14.3,35.4z"/>
</g>
<g>
	<path d="M70.5,50"/>
</g>
<g>
	<path d="M50.5,71c-8.5,0-16.2-5.1-19.4-13l1.8-0.8C35.9,64.4,42.8,69,50.5,69C58.1,69,65,64.5,68,57.4l1.8,0.8
		C66.5,66,58.9,71,50.5,71z"/>
</g>
<g>
	<path d="M50.5,81c-12.6,0-23.9-7.5-28.7-19.2l1.8-0.8C28.2,72,38.7,79,50.5,79c11.7,0,22.2-7,26.7-17.7l1.8,0.8
		C74.2,73.6,63,81,50.5,81z"/>
</g>
<g>
	<path d="M50.5,91C33.8,91,19,81,12.6,65.6l1.8-0.8C20.5,79.5,34.6,89,50.5,89c15.7,0,29.8-9.4,35.9-23.8l1.8,0.8
		C81.8,81.2,67,91,50.5,91z"/>
</g>
</svg>
