<?xml version="1.0" encoding="utf-8"?>
<!-- Generator: Adobe Illustrator 16.0.0, SVG Export Plug-In . SVG Version: 6.00 Build 0)  -->
<!DOCTYPE svg PUBLIC "-//W3C//DTD SVG 1.1//EN" "http://www.w3.org/Graphics/SVG/1.1/DTD/svg11.dtd">
<svg version="1.1" id="Layer_1" xmlns="http://www.w3.org/2000/svg" xmlns:xlink="http://www.w3.org/1999/xlink" x="0px" y="0px"
	 width="100px" height="100px" viewBox="0 0 100 100" style="enable-background:new 0 0 100 100;" xml:space="preserve">
<rect x="9.5" y="47.5" width="80" height="2"/>
<polygon points="21.8,75.8 17.6,71.6 13.5,75.7 12,74.2 17.6,68.5 23.3,74.2 "/>
<rect x="16.5" y="70.5" width="2" height="14"/>
<polygon points="87.5,75.7 83.5,71.6 79.5,75.6 78,74.1 83.5,68.6 89,74.2 "/>
<rect x="82.5" y="70.5" width="2" height="14"/>
<path d="M23.5,53.5v11h-11v-11H23.5 M25.5,51.5h-15v15h15V51.5L25.5,51.5z"/>
<rect x="16.8" y="50.9" transform="matrix(0.7071 0.7071 -0.7071 0.7071 46.6571 4.6214)" width="2" height="15.6"/>
<path d="M88.5,53.5v11h-11v-11H88.5 M90.5,51.5h-15v15h15V51.5L90.5,51.5z"/>
<rect x="81.8" y="50.9" transform="matrix(0.7071 0.7071 -0.7071 0.7071 65.6952 -41.3405)" width="2" height="15.6"/>
<circle cx="50.2" cy="30.7" r="14.3"/>
</svg>
