<?xml version="1.0" encoding="utf-8"?>
<!-- Generator: Adobe Illustrator 16.0.0, SVG Export Plug-In . SVG Version: 6.00 Build 0)  -->
<!DOCTYPE svg PUBLIC "-//W3C//DTD SVG 1.1//EN" "http://www.w3.org/Graphics/SVG/1.1/DTD/svg11.dtd">
<svg version="1.1" id="Layer_1" xmlns="http://www.w3.org/2000/svg" xmlns:xlink="http://www.w3.org/1999/xlink" x="0px" y="0px"
	 width="100px" height="100px" viewBox="0 0 100 100" style="enable-background:new 0 0 100 100;" xml:space="preserve">
<g>
	<g>
		<path d="M63.5,36.5v26h-26v-26H63.5 M65.5,34.5h-30v30h30V34.5L65.5,34.5z"/>
	</g>
	<g>
		<rect x="49.6" y="30.9" transform="matrix(0.7158 0.6983 -0.6983 0.7158 49.0366 -21.2483)" width="2" height="37.4"/>
	</g>
	<g>
		<path d="M50.2,7.5c2.2,0,4,1.8,4,4s-1.8,4-4,4c-2.2,0-4-1.8-4-4S48,7.5,50.2,7.5 M50.2,6.5c-2.8,0-5,2.2-5,5s2.2,5,5,5s5-2.2,5-5
			S53,6.5,50.2,6.5L50.2,6.5z"/>
	</g>
	<g>
		<path d="M50.2,84.5c2.2,0,4,1.8,4,4s-1.8,4-4,4c-2.2,0-4-1.8-4-4S48,84.5,50.2,84.5 M50.2,83.5c-2.8,0-5,2.2-5,5s2.2,5,5,5
			s5-2.2,5-5S53,83.5,50.2,83.5L50.2,83.5z"/>
	</g>
	<g>
		<path d="M88.2,45.5c2.2,0,4,1.8,4,4c0,2.2-1.8,4-4,4s-4-1.8-4-4C84.2,47.3,86,45.5,88.2,45.5 M88.2,44.5c-2.8,0-5,2.2-5,5
			s2.2,5,5,5s5-2.2,5-5S91,44.5,88.2,44.5L88.2,44.5z"/>
	</g>
	<g>
		<path d="M77.2,73.5c2.2,0,4,1.8,4,4s-1.8,4-4,4s-4-1.8-4-4S75,73.5,77.2,73.5 M77.2,72.5c-2.8,0-5,2.2-5,5s2.2,5,5,5s5-2.2,5-5
			S80,72.5,77.2,72.5L77.2,72.5z"/>
	</g>
	<g>
		<path d="M23.2,18.5c2.2,0,4,1.8,4,4s-1.8,4-4,4s-4-1.8-4-4S21,18.5,23.2,18.5 M23.2,17.5c-2.8,0-5,2.2-5,5s2.2,5,5,5s5-2.2,5-5
			S26,17.5,23.2,17.5L23.2,17.5z"/>
	</g>
	<g>
		<path d="M11.8,45.5c2.2,0,4,1.8,4,4c0,2.2-1.8,4-4,4s-4-1.8-4-4C7.8,47.3,9.5,45.5,11.8,45.5 M11.8,44.5c-2.8,0-5,2.2-5,5
			s2.2,5,5,5s5-2.2,5-5S14.5,44.5,11.8,44.5L11.8,44.5z"/>
	</g>
	<g>
		<path d="M23.2,73.5c2.2,0,4,1.8,4,4s-1.8,4-4,4s-4-1.8-4-4S21,73.5,23.2,73.5 M23.2,72.5c-2.8,0-5,2.2-5,5s2.2,5,5,5
			c2.8,0,5-2.2,5-5S26,72.5,23.2,72.5L23.2,72.5z"/>
	</g>
	<g>
		<path d="M77.2,18.5c2.2,0,4,1.8,4,4s-1.8,4-4,4s-4-1.8-4-4S75,18.5,77.2,18.5 M77.2,17.5c-2.8,0-5,2.2-5,5s2.2,5,5,5s5-2.2,5-5
			S80,17.5,77.2,17.5L77.2,17.5z"/>
	</g>
</g>
</svg>
