<?xml version="1.0" encoding="utf-8"?>
<!-- Generator: Adobe Illustrator 16.0.0, SVG Export Plug-In . SVG Version: 6.00 Build 0)  -->
<!DOCTYPE svg PUBLIC "-//W3C//DTD SVG 1.1//EN" "http://www.w3.org/Graphics/SVG/1.1/DTD/svg11.dtd">
<svg version="1.1" id="Layer_1" xmlns="http://www.w3.org/2000/svg" xmlns:xlink="http://www.w3.org/1999/xlink" x="0px" y="0px"
	 width="100px" height="100px" viewBox="0 0 100 100" style="enable-background:new 0 0 100 100;" xml:space="preserve">
<path d="M83.5,50.5h-3C80.5,30.5,65,16,46,16S11.5,30.5,11.5,50.5h-3C8.5,29.5,25.3,13,46,13S83.5,29.5,83.5,50.5z"/>
<path d="M75.5,50.5h-3C72.5,35.5,60.6,24,46,24S19.5,35.5,19.5,50.5h-3C16.5,33.5,29.7,21,46,21C62.3,21,75.5,33.5,75.5,50.5z"/>
<path d="M59.5,50.5h-3c0-6-4.7-10.5-10.5-10.5c-5.8,0-10.5,4.5-10.5,10.5h-3c0-8,6.1-13.5,13.5-13.5C53.4,37,59.5,42.5,59.5,50.5z"
	/>
<path d="M67.5,50.5h-3c0-11-8.3-18.5-18.5-18.5s-18.5,7.5-18.5,18.5h-3c0-12,9.6-21.5,21.5-21.5C57.9,29,67.5,38.5,67.5,50.5z"/>
<path d="M54,88c-20.7,0-37.5-17.5-37.5-37.5h3C19.5,69.5,35,85,54,85s34.5-15.5,34.5-34.5h3C91.5,70.5,74.7,88,54,88z"/>
<path d="M54,80c-16.3,0-29.5-13.5-29.5-29.5h3C27.5,64.5,39.4,77,54,77s26.5-12.5,26.5-26.5h3C83.5,66.5,70.3,80,54,80z"/>
<path d="M54,64c-7.4,0-13.5-6.5-13.5-13.5h3c0,5,4.7,10.5,10.5,10.5s10.5-5.5,10.5-10.5h3C67.5,57.5,61.4,64,54,64z"/>
<path d="M54,72c-11.9,0-21.5-10.5-21.5-21.5h3c0,10,8.3,18.5,18.5,18.5s18.5-8.5,18.5-18.5h3C75.5,61.5,65.9,72,54,72z"/>
</svg>
