<?xml version="1.0" encoding="utf-8"?>
<!-- Generator: Adobe Illustrator 16.0.0, SVG Export Plug-In . SVG Version: 6.00 Build 0)  -->
<!DOCTYPE svg PUBLIC "-//W3C//DTD SVG 1.1//EN" "http://www.w3.org/Graphics/SVG/1.1/DTD/svg11.dtd">
<svg version="1.1" id="Layer_1" xmlns="http://www.w3.org/2000/svg" xmlns:xlink="http://www.w3.org/1999/xlink" x="0px" y="0px"
	 width="100px" height="100px" viewBox="0 0 100 100" style="enable-background:new 0 0 100 100;" xml:space="preserve">
<path d="M52.5,7.5l-1.4,8H15.5v4h34.9l-1.1,6H15.5v4h33.2l-1.1,6H15.5v4H47l0,0.2l1.5,5.8h-33v4h34l1.5,6H15.5v4h36.6l2.5,10
	l-3.7,14H6.5v-76H52.5 M54.9,5.5H4.5v80h47.9l4.3-16l-3-12H16h37.6l-2.5-10H16h35.1L49,39.2l0.3-1.7H16h33.3l1.8-10H16h35l1.8-10H16
	h36.8L54.9,5.5L54.9,5.5z"/>
<path d="M92.5,17.5v76H65l3.6-13.7l0.1-0.6l-0.1-0.3l-2.4-9.3h18.3v-4H65.2l-1.5-6h20.8v-4H62.7l-1.5-6h23.4v-4H61.7l1.1-6h21.8v-4
	H63.4l1.1-6h20v-4H65.2l1.4-8H92.5 M94.5,15.5H64.9l-2.1,12H85H62.8l-1.8,10h24H61l-1.8,10H85H59.3L59,49.2l2.1,8.3H85H61.1l2.5,10
	H85H63.6l3,12l-4.3,16h32.1V15.5L94.5,15.5z"/>
</svg>
