<?xml version="1.0" encoding="utf-8"?>
<!-- Generator: Adobe Illustrator 16.0.0, SVG Export Plug-In . SVG Version: 6.00 Build 0)  -->
<!DOCTYPE svg PUBLIC "-//W3C//DTD SVG 1.1//EN" "http://www.w3.org/Graphics/SVG/1.1/DTD/svg11.dtd">
<svg version="1.1" id="Layer_1" xmlns="http://www.w3.org/2000/svg" xmlns:xlink="http://www.w3.org/1999/xlink" x="0px" y="0px"
	 width="100px" height="100px" viewBox="0 0 100 100" style="enable-background:new 0 0 100 100;" xml:space="preserve">
<style type="text/css">
<![CDATA[
	.st0{fill:#FFFFFF;}
]]>
</style>
<rect x="10.5" y="40.5" width="79" height="2"/>
<path d="M27.5,73.5h-2c0-14,6.4-22.9,11.8-27.5c4.8-4.2,9.6-6.1,11.3-6.6l1.6-7.5c0.1-2.7,2.3-4.9,5.1-4.9c2.8,0,5,2.2,5,5
	c0,0.1-0.2,4.1-2.8,6.9c-1.6,1.7-4,2.5-7,2.5v-2c3,0,4.3-0.6,5.5-1.9c2.1-2.1,2.2-5.4,2.2-5.5c0-1.7-1.3-3-3-3c-1.7,0-3,1.3-3,3
	l0,0.2l-1.9,8.7l-0.6,0.3C48.8,41.4,27.5,47.5,27.5,73.5z"/>
<path class="st0" d="M49.4,40.1c-8.6,0-8.2-8.2-8.2-8.2c0-2.2,1.8-4,4-4c2.2,0,4,1.8,4,4l1.7,8.1c0,0,11.3,11.6,7.1,19.6"/>
<path d="M58.9,60.1l-1.8-0.9c3.9-7.3-6.8-18.3-6.9-18.4L50,40.5L48.2,32c0-1.7-1.3-3-3-3c-1.7,0-3,1.3-3,3c0,0.1-0.1,3.2,1.9,5.3
	c1.2,1.3,3.4,1.9,5.4,1.9v2c-3,0-5.2-0.9-6.8-2.5c-2.6-2.7-2.4-6.5-2.4-6.7c0-2.7,2.2-5,5-5c2.7,0,4.9,2.2,5,4.9l1.6,7.7
	C53.4,41.3,63.1,52.1,58.9,60.1z"/>
<ellipse cx="89.5" cy="40.4" rx="0" ry="8"/>
<rect x="88.5" y="32.5" width="2" height="16"/>
<ellipse cx="10.5" cy="40.4" rx="0" ry="8"/>
<rect x="9.5" y="32.5" width="2" height="16"/>
</svg>
