<?xml version="1.0" encoding="utf-8"?>
<!-- Generator: Adobe Illustrator 16.0.0, SVG Export Plug-In . SVG Version: 6.00 Build 0)  -->
<!DOCTYPE svg PUBLIC "-//W3C//DTD SVG 1.1//EN" "http://www.w3.org/Graphics/SVG/1.1/DTD/svg11.dtd">
<svg version="1.1" id="Layer_1" xmlns="http://www.w3.org/2000/svg" xmlns:xlink="http://www.w3.org/1999/xlink" x="0px" y="0px"
	 width="100px" height="100px" viewBox="0 0 100 100" style="enable-background:new 0 0 100 100;" xml:space="preserve">
<g>
	<g>
		<g>
			<path d="M73.5,33c-0.8-4.4-2.8-8.9-5.8-12.9c-3-4.1-6.8-7.4-10.9-9.4l0.9-1.8c4.4,2.2,8.4,5.6,11.6,10c3.2,4.3,5.3,9,6.1,13.7
				L73.5,33z"/>
		</g>
		<g>
			<polygon points="78.5,31.9 74.5,36.6 69.8,32.5 			"/>
		</g>
	</g>
	<g>
		<g>
			<g>
				<path d="M47.8,17.9L56,32l-8.4,14.5H30.8l-8.1-14c-0.8,2.3-1.2,4.7-1.2,7.3c0,12.3,10,22.3,22.3,22.3c12.3,0,22.3-10,22.3-22.3
					C66.1,28.9,58.2,19.8,47.8,17.9z"/>
			</g>
			<g>
				<path d="M45.5,21.5H32.9l-6.3,10l6.3,10h12.5l6.3-10L45.5,21.5z M39.2,35.4c-2.4,0-4.4-1.9-4.4-4.4c0-2.4,1.9-4.4,4.4-4.4
					c2.4,0,4.4,1.9,4.4,4.4C43.6,33.4,41.6,35.4,39.2,35.4z"/>
			</g>
		</g>
		<g>
			<polygon points="42.1,50.3 53.5,45.3 73,83.1 57.4,90.2 			"/>
		</g>
	</g>
</g>
</svg>
