<?xml version="1.0" encoding="utf-8"?>
<!-- Generator: Adobe Illustrator 16.0.0, SVG Export Plug-In . SVG Version: 6.00 Build 0)  -->
<!DOCTYPE svg PUBLIC "-//W3C//DTD SVG 1.1//EN" "http://www.w3.org/Graphics/SVG/1.1/DTD/svg11.dtd">
<svg version="1.1" id="Layer_1" xmlns="http://www.w3.org/2000/svg" xmlns:xlink="http://www.w3.org/1999/xlink" x="0px" y="0px"
	 width="100px" height="100px" viewBox="0 0 100 100" style="enable-background:new 0 0 100 100;" xml:space="preserve">
<style type="text/css">
<![CDATA[
	.st0{stroke:#231F20;stroke-width:2;stroke-miterlimit:10;}
]]>
</style>
<path d="M50,25.1c22.1,0,40,12.3,40,27.4C90,67.7,72.1,80,50,80c-22.1,0-40-12.3-40-27.4C10,37.4,27.9,25.1,50,25.1 M50,23.1
	c-23.2,0-42,13.2-42,29.4S26.8,82,50,82c23.2,0,42-13.2,42-29.4S73.2,23.1,50,23.1L50,23.1z"/>
<path class="st0" d="M50,15.1"/>
<path class="st0" d="M74,6.5"/>
<path d="M50.2,94.5c-8.8,0-17.3-1.9-24.3-5.5l0.9-1.8c6.8,3.5,14.9,5.3,23.4,5.3c8.3,0,16.2-1.8,22.9-5.1l0.9,1.8
	C67.1,92.7,58.9,94.5,50.2,94.5z"/>
<polygon points="75.5,92.4 77,85.8 70.3,84.3 "/>
<path d="M76.5,18.6c-6.8-3.5-14.9-5.3-23.4-5.3c-8.3,0-16.2,1.8-22.9,5.1l-0.9-1.8c7-3.5,15.2-5.3,23.8-5.3c8.8,0,17.3,1.9,24.3,5.5
	L76.5,18.6z"/>
<polygon points="27.8,13.4 26.4,20 33,21.5 "/>
</svg>
