<?xml version="1.0" encoding="utf-8"?>
<!-- Generator: Adobe Illustrator 16.0.0, SVG Export Plug-In . SVG Version: 6.00 Build 0)  -->
<!DOCTYPE svg PUBLIC "-//W3C//DTD SVG 1.1//EN" "http://www.w3.org/Graphics/SVG/1.1/DTD/svg11.dtd">
<svg version="1.1" id="Layer_1" xmlns="http://www.w3.org/2000/svg" xmlns:xlink="http://www.w3.org/1999/xlink" x="0px" y="0px"
	 width="100px" height="100px" viewBox="0 0 100 100" style="enable-background:new 0 0 100 100;" xml:space="preserve">
<rect x="5" y="61.3" transform="matrix(0.7071 0.7071 -0.7071 0.7071 54.9988 -8.2329)" width="64.8" height="2"/>
<rect x="13.2" y="53.1" transform="matrix(0.7071 0.7071 -0.7071 0.7071 51.6111 -16.4154)" width="64.8" height="2"/>
<rect x="22.2" y="44.1" transform="matrix(0.7071 0.7071 -0.7071 0.7071 47.8822 -25.4167)" width="64.8" height="2"/>
<rect x="30.4" y="35.9" transform="matrix(0.7071 0.7071 -0.7071 0.7071 44.4926 -33.5993)" width="64.8" height="2"/>
<rect x="36.4" y="5.3" transform="matrix(0.7071 0.7071 -0.7071 0.7071 37.6412 -15.4227)" width="2" height="64.8"/>
<rect x="44.6" y="13.5" transform="matrix(0.7071 0.7071 -0.7071 0.7071 45.8244 -18.812)" width="2" height="64.8"/>
<rect x="53.6" y="22.5" transform="matrix(0.7071 0.7071 -0.7071 0.7071 54.8257 -22.5406)" width="2" height="64.8"/>
<rect x="61.8" y="30.7" transform="matrix(0.7071 0.7071 -0.7071 0.7071 63.0078 -25.9298)" width="2" height="64.8"/>
<circle cx="14" cy="39.6" r="3.3"/>
<circle cx="22.6" cy="31" r="3.3"/>
<circle cx="31.3" cy="22.4" r="3.3"/>
<circle cx="39.9" cy="13.7" r="3.3"/>
<circle cx="60.1" cy="14.3" r="3.3"/>
<circle cx="68.7" cy="22.9" r="3.3"/>
<circle cx="77.4" cy="31.6" r="3.3"/>
<circle cx="86" cy="40.2" r="3.3"/>
<circle cx="86" cy="59.8" r="3.3"/>
<circle cx="77.4" cy="68.4" r="3.3"/>
<circle cx="68.7" cy="77.1" r="3.3"/>
<circle cx="60.1" cy="85.7" r="3.3"/>
<circle cx="60.1" cy="85.7" r="3.3"/>
<circle cx="14" cy="60.4" r="3.3"/>
<circle cx="22.6" cy="69" r="3.3"/>
<circle cx="31.3" cy="77.6" r="3.3"/>
<circle cx="39.9" cy="86.3" r="3.3"/>
</svg>
