<?xml version="1.0" encoding="utf-8"?>
<!-- Generator: Adobe Illustrator 16.0.0, SVG Export Plug-In . SVG Version: 6.00 Build 0)  -->
<!DOCTYPE svg PUBLIC "-//W3C//DTD SVG 1.1//EN" "http://www.w3.org/Graphics/SVG/1.1/DTD/svg11.dtd">
<svg version="1.1" id="Layer_1" xmlns="http://www.w3.org/2000/svg" xmlns:xlink="http://www.w3.org/1999/xlink" x="0px" y="0px"
	 width="100px" height="100px" viewBox="0 0 100 100" style="enable-background:new 0 0 100 100;" xml:space="preserve">
<style type="text/css">
<![CDATA[
	.st0{fill:#FFFFFF;stroke:#000000;stroke-miterlimit:10;}
	.st1{fill:#FFFFFF;}
]]>
</style>
<path d="M44.6,48.7c-1,0-2-0.5-2.5-1.4l-9.6-16.7c-0.4-0.7-0.5-1.4-0.3-2.2c0.2-0.7,0.7-1.3,1.3-1.7L63.9,9.3
	c0.4-0.2,0.9-0.4,1.4-0.4c1,0,2,0.5,2.5,1.4L77.4,27c0.4,0.7,0.5,1.4,0.3,2.2c-0.2,0.7-0.7,1.3-1.3,1.7L46,48.4
	C45.6,48.6,45.1,48.7,44.6,48.7z M65.3,10.9c-0.1,0-0.3,0-0.4,0.1L34.5,28.5c-0.2,0.1-0.3,0.3-0.4,0.5c-0.1,0.2,0,0.4,0.1,0.6
	l9.6,16.7c0.2,0.4,0.8,0.5,1.1,0.3l30.4-17.5c0.2-0.1,0.3-0.3,0.4-0.5s0-0.4-0.1-0.6L66,11.3C65.9,11.1,65.6,10.9,65.3,10.9z"/>
<path d="M34.3,91c-1,0-2-0.5-2.5-1.4l-9.6-16.7c-0.4-0.7-0.5-1.4-0.3-2.2c0.2-0.7,0.7-1.3,1.3-1.7l30.4-17.5
	c0.4-0.2,0.9-0.4,1.4-0.4c1,0,2,0.5,2.5,1.4l9.6,16.7c0.8,1.4,0.3,3.1-1,3.9L35.7,90.6C35.3,90.9,34.8,91,34.3,91z M55,53.2
	c-0.1,0-0.3,0-0.4,0.1L24.3,70.7c-0.2,0.1-0.3,0.3-0.4,0.5s0,0.4,0.1,0.6l9.6,16.7c0.2,0.4,0.8,0.5,1.1,0.3l30.4-17.5
	c0.4-0.2,0.5-0.7,0.3-1.1l-9.6-16.7C55.6,53.3,55.3,53.2,55,53.2z"/>
<path d="M44.5,12.3c0-1.1,0.8-1.8,1.9-1.8h7.9c1.1,0,1.2,0.6,1.2,1.8v75.8c0,1.1-0.1,2.4-1.2,2.4h-7.9c-1.1,0-1.9-1.2-1.9-2.4V12.3z
	"/>
<path d="M33.1,36.8"/>
<path class="st0" d="M59.4,50.2"/>
<path class="st1" d="M66.5,71.1v-8.6L67.2,49c0.3-2.1-0.6-2.4-0.6-2.4l-8.3-4.8l-0.8-0.5L35.3,27.6c-0.9-0.5-1.9-0.3-2.4,0.6
	l-0.5,26.6l33.3,17.6C65.8,72.4,66.5,72.9,66.5,71.1z"/>
<path d="M66.2,73.5L66.2,73.5c-0.4,0-0.7-0.2-0.8-0.2l-34-17.9L32,27.9l0.1-0.2c0.7-1.3,2.4-1.7,3.7-0.9l23,14.2l8.3,4.8
	c0.4,0.2,1.4,1,1.1,3.4l-0.7,13.5v8.5c0,0.7,0.1,1.2-0.2,1.6C67,73.2,66.7,73.5,66.2,73.5z M33.4,54.2l32.1,17c0,0,0-0.1,0-0.1v-8.6
	l0.8-13.6c0.1-1,0-1.4-0.1-1.5L57,42.1L34.8,28.4c-0.3-0.2-0.7-0.2-0.9,0L33.4,54.2z"/>
<polygon points="88.7,16.6 86.7,16.1 88.1,10.3 83.3,9.1 83.8,7.1 90.6,8.8 "/>
<rect x="82.3" y="6.2" transform="matrix(0.5207 0.8538 -0.8538 0.5207 51.1982 -64.742)" width="2" height="14"/>
<polygon points="16.2,92.9 9.4,91.2 11.3,83.4 13.3,83.9 11.9,89.7 16.7,90.9 "/>
<rect x="15.7" y="79.8" transform="matrix(0.521 0.8535 -0.8535 0.521 82.0873 27.2717)" width="2" height="14"/>
</svg>
